<?xml version="1.0" encoding="utf-8"?>
<!-- Generator: Adobe Illustrator 18.0.0, SVG Export Plug-In . SVG Version: 6.00 Build 0)  -->
<!DOCTYPE svg PUBLIC "-//W3C//DTD SVG 1.1//EN" "http://www.w3.org/Graphics/SVG/1.1/DTD/svg11.dtd">
<svg version="1.1" xmlns="http://www.w3.org/2000/svg" xmlns:xlink="http://www.w3.org/1999/xlink" x="0px" y="0px"
	 width="1277.5px" height="788.4px" viewBox="0 0 1277.5 788.4" style="enable-background:new 0 0 1277.5 788.4;"
	 xml:space="preserve" preserveAspectRatio="xMinYMin meet">

<g id="Background">

	<g id="Bus" class="st-group">
		<circle class="st-circle" cx="982" cy="533.7" r="16.5"/>
		<path class="st-plus" d="M972.3,536.1v-4.7h7.4V524h4.7v7.4h7.4v4.7h-7.4v7.4h-4.7v-7.4H972.3z"/>
		<path id="busCircle" class="st-overlay" d="M843.7,443.7c0-5.5,10.2-34.3,31.6-33.7c39.4,1.1,102.8,36.1,112.9,36.1
				c12.7,0,81.4-3.8,106.9,12.6c5.9,3.8,9.9,32.6,9.9,35.5c0,2.2-3.2,38.1-7.8,40.3c-28.8,13.8-133.8-6-147.2-6
				c-12.7,0-74-23.5-96.9-49.1C847.7,473.6,843.7,446.6,843.7,443.7z"/>
	</g>

	<g id="Shuttle" class="st-group">
		<circle class="st-circle" cx="1077.3" cy="317.1" r="16.5"/>
		<path class="st-plus" d="M1067.6,319.5v-4.7h7.4v-7.4h4.7v7.4h7.4v4.7h-7.4v7.4h-4.7v-7.4H1067.6z"/>
		<path id="shuttleCircle" class="st-overlay" d="M880,308.2c0-7.9-11.9-40.7,12.6-51.5c36.8-16.3,116.4-9.9,128.2-9.9c9,0,59-1.3,76.6,12.6
				c21.2,16.8,9.7,50.2,9.7,61c0,5.1,5.4,27.6-1.9,36.6c-21.2,26-74.2,46.2-88.9,46.2c-9.1,0-85.2-26.1-104.2-32.1
				C889.6,364,880,318.9,880,308.2z"/>
	</g>

	<g id="Express" class="st-group">
		<circle class="st-circle" cx="636.8" cy="454.1" r="16.5"/>
		<path class="st-plus" d="M627,456.5v-4.7h7.4v-7.4h4.7v7.4h7.4v4.7h-7.4v7.4h-4.7v-7.4H627z"/>
		<path id="expressCircle" class="st-overlay" d="M624.2,381c-9.2,3.7-5.2,26,5.8,45s29,60,36,71s15,32.8,34,21.9c19-10.9,53-32.5,63-44.2
				c10-11.7-6-33.7-7-49.7s-50.5-43-62.2-52S651.3,370,624.2,381z"/>
	</g>

	<g id="Taxi" class="st-group">
		<circle class="st-circle" cx="723.2" cy="635.9" r="16.5"/>
		<path class="st-plus" d="M713.5,638.2v-4.7h7.4v-7.4h4.7v7.4h7.4v4.7h-7.4v7.4h-4.7v-7.4H713.5z"/>
		<path id="taxiCircle" class="st-overlay" d="M729.4,585.4c0-7.8-20.7-31-14.9-45.7c5.8-14.7,38.2-20.8,46.1-20.8
				c5.1,0,26.9,11.5,47.9,30.1c26.9,23.8,55.3,58.2,74.4,82.8c11.5,14.8,11.1,31,11.1,34.9c0,15.6-98.8,44-114.4,44
				S729.4,601,729.4,585.4z"/>
	</g>

	<g id="Carshare" class="st-group">
		<circle class="st-circle" cx="509.7" cy="700.8" r="16.5"/>
		<path class="st-plus" d="M500,703.1v-4.7h7.4V691h4.7v7.4h7.4v4.7h-7.4v7.4h-4.7v-7.4H500z"/>
		<path id="carshareCircle" class="st-overlay" d="M600,705c0,37.6-36.3,68-73,68c-15,0-24.8-12.4-24.8-50s47.1-91,83.8-91
				c16.4,0,27.4,4.1,34.8,11.1C635,656.4,600,680.3,600,705z"/>
	</g>

	<g  id="Cars"class="st-group">
		<circle class="st-circle" cx="382.4" cy="656.9" r="16.5"/>
		<path class="st-plus" d="M372.7,659.2v-4.7h7.4v-7.4h4.7v7.4h7.4v4.7h-7.4v7.4h-4.7v-7.4H372.7z"/>
		<path id="carsCircle" class="st-overlay" d="M347.4,595.6c34.8,9.7,77.8-2.6,85.6-2.6c7.5,0,51.9,6.2,57,11c3.8,3.5-41,34.2-52,49
				c-7.7,10.4-47.7,39.5-52,41c-27.5,9.7-55.3,40-63.3,36.3c-1.5-0.7-29.1-7.6-26.7-10.3s2.4-31.2,7-35c16.8-14.1,24-19.1,17-22.8
				C309,637,312.6,585.9,347.4,595.6z"/>
	</g>

	<g id="Train" class="st-group">
		<circle class="st-circle" cx="155.4" cy="415.8" r="16.5"/>
		<path class="st-plus" d="M145.7,418.1v-4.7h7.4v-7.4h4.7v7.4h7.4v4.7h-7.4v7.4H153v-7.4H145.7z"/>
		<path id="trainCircle" class="st-overlay" d="M32.7,450.6c0-5.8-4.2-58.4,22.6-86.5c45.4-47.4,143.1-77.3,143.1-77.3s87.1-38.7,140.2-40.9
				c8.6-0.3,26.3,0.4,34.9,5.3c14.4,8.2,17.9,22.8,17.9,25.8c0,15.6-106.4,67-122,67c-10.9,0-118.2,83.2-184.3,113.8
				C56.6,471.1,32.7,455.4,32.7,450.6z"/>
	</g>

</g>

</svg>
