<?xml version="1.0" encoding="utf-8"?><!-- Generator: Adobe Illustrator 18.0.0, SVG Export Plug-In . SVG Version: 6.00 Build 0)  --><!DOCTYPE svg PUBLIC "-//W3C//DTD SVG 1.1//EN" "http://www.w3.org/Graphics/SVG/1.1/DTD/svg11.dtd"><svg version="1.1" xmlns="http://www.w3.org/2000/svg" xmlns:xlink="http://www.w3.org/1999/xlink" x="0px" y="0px"	 width="1277.5px" height="788.4px" viewBox="0 0 1277.5 788.4" style="enable-background:new 0 0 1277.5 788.4;"	 xml:space="preserve" preserveAspectRatio="xMinYMin meet"><g id="Background">  <g id="Levees" class="map-overlay">    <path d="381,884,377,876,360,870,350,870,347,866,342,867,342,869,343,869,333,873,325,865,380,951,378,927,396,911,400,907,384,896,378,634,372,640,374,644,376,647,382,655,386,660,384,662,389,669,397,676,404,682,410,688,415,694,418,693,415,690,415,684,420,681,423,678,426,677,430,676,396,635,409,638,416,645,417,652,421,657,427,656,427,651,426,648,426,642,428,641,429,639,427,635,496,795,505,791,509,790,511,789,513,788,516,787,267,113,274,116,280,120,294,127,310,135,317,139,323,143,233,96,248,104,122,349,117,342,111,344,112,336,489,443,447,443"/>  </g>  <g id="Berms" class="map-overlay">    <path d="113,131,113,130,117,124,124,120,133,115,138,113,137,119,140,125,148,124,152,123,155,120,157,121,155,125,154,130,160,131,164,129,167,125,172,123,175,119,175,114,174,113,184,114,187,114,190,113,195,112,202,108,209,100,211,98,211,96,213,91,220,85,226,86,235,90,326,142,335,146,339,149,340,150,339,153,335,157,338,160,341,164,343,166,345,168,352,177,358,182,361,180,364,184,366,187,367,189,372,192,378,194,377,196,373,197,372,200,365,202,357,205,446,201,451,203,454,207,495,237,501,233,503,229,502,225,505,224,508,224,512,219,513,219,523,196,526,197,528,195,534,190,537,185,539,182,541,179,486,270,493,269,505,265,506,264,511,259,514,259,518,257,521,254,524,255,526,257,532,259,533,258,538,255,538,255,538,247,116,150,121,153,120,164,120,166,119,167,116,170,114,176,122,179,128,190,125,196,120,202,116,207,108,214,101,221,99,228,97,236,96,243,93,254,92,261,90,267,90,272,90,273,106,393,98,393,96,390,95,382,96,379,101,384,86,433,87,438,88,443,91,449,224,368,231,368,233,374,241,381,233,355,234,355,231,350,243,340,238,340,236,336,461,718,478,726,482,736,484,745,489,765,487,775,490,784,493,788,493,787,504,795,512,794,520,796,532,802,506,799,515,805,519,816,520,822,523,828,524,831,528,833,537,834,647,961,638,967,629,972,622,980,614,983,606,969,596,954,588,941,583,931,582,931,579,927,575,915,571,911,564,910,558,899,553,888,555,882,555,874,553,860,546,836,647,967,658,976,676,981,706,997,704,1071,727,1051,697,1066,683,1067,668,1071,643,1078,615,1085,603,1089,593,1082,580,1078,573,1077,568,1075,556,1068,547,1059,550,1060,536,1044,536,1043,534,1039,530,1037,526,1029,519,1016,507,1007,494,988,479,976,468,980,456,980,441,968,439,960,434,954,445,949,445,950,405,960,404,961,398,952,392,950,387,950,434,675,438,676,439,678,435,683,433,686,435,689,441,686,445,688,308,432,311,432,312,433,133,438,146,446,127,367,119,350,152,315,156,317,158,320,167,317,489,493,447,493"/>  </g>  <g id="ShorelineProtection" class="map-overlay">    <path d="143,549,153,556,166,559,168,558,168,555,170,555,172,555,174,554,175,556,179,556,179,554,183,553,187,555,188,556,189,555,190,554,193,552,200,554,201,552,206,553,210,552,214,552,219,555,225,561,231,568,236,577,236,592,234,592,234,594,236,595,236,600,238,605,237,607,236,612,238,613,242,616,242,621,243,623,242,623,240,624,240,625,243,626,245,628,247,626,248,626,248,631,247,634,249,635,256,642,251,643,250,645,248,645,248,648,248,651,249,652,250,652,252,651,256,654,259,654,263,656,265,656,266,657,263,658,264,659,267,659,267,662,263,662,260,667,265,671,264,672,261,670,262,673,258,675,255,672,235,664,236,662,237,667,247,676,244,681,246,684,244,685,236,682,235,685,232,684,230,686,230,690,234,725,236,726,239,727,243,727,242,733,236,734,236,736,236,739,233,738,230,741,234,742,238,745,239,742,239,739,242,742,241,743,242,745,249,746,249,748,243,749,244,751,246,752,247,756,246,758,246,761,243,766,231,766,230,769,227,772,225,772,226,774,228,774,228,776,229,778,231,777,231,772,234,772,234,776,239,776,240,780,243,783,241,784,236,783,235,786,238,791,239,791,243,790,244,788,246,790,259,793,256,797,256,800,257,802,259,802,260,804,261,804,269,809,265,816,253,809,246,821,256,828,258,830,258,833,260,833,260,832,262,834,263,837,265,840,274,840,278,841,280,839,281,840,279,842,281,843,283,842,284,840,288,840,292,840,293,842,293,844,295,846,296,845,299,844,304,841,304,839,306,839,310,840,309,845,322,862,326,861,330,861,408,967,412,968,419,968,418,964,414,964,413,961,411,957,413,956,417,954,418,958,420,960,424,960,422,957,420,956,421,951,422,948,422,945,425,943,429,939,432,942,437,943,436,945,437,946,442,946,441,943,445,945,445,947,442,971,445,975,452,978,502,969,504,972,537,1047,539,1056,547,1056,551,1054,495,989,497,994,502,996,503,1001,507,1004,507,1003,522,1017,525,1021,525,1025,446,691,446,700,447,700,449,703,451,706,453,709,454,710,455,712,456,714,457,716,350,605,348,602,345,601,343,604,340,604,339,602,336,602,330,600,329,598,329,598,331,595,331,593,329,589,325,588,319,588,318,593,316,593,314,593,310,591,307,589,304,588,300,588,298,587,295,585,298,583,298,582,297,581,297,578,298,575,298,572,298,570,299,570,300,570,303,572,308,573,316,575,321,576,324,577,331,578,335,577,338,576,339,578,340,578,342,577,344,574,348,575,351,576,354,575,354,578,354,580,357,581,359,583,361,587,362,588,363,587,364,586,367,586,368,587,368,592,370,592,372,589,372,591,372,593,375,594,378,594,380,596,382,598,384,598,387,599,395,604,398,605,402,608,405,610,406,614,407,618,405,622,402,625,398,628,253,542,252,538,250,534,249,532,247,527,249,522,255,523,257,527,260,532,260,537,257,539,255,541,255,541,265,546,263,554,304,563,304,563,304,559,303,557,302,556,303,554,302,553,297,553,295,554,292,556,288,557,285,557,285,556,287,554,291,551,294,550,302,551,305,550,305,550,305,550,306,549,308,547,310,545,312,544,312,543,314,541,317,540,319,540,320,538,320,538,320,537,319,534,314,533,310,535,310,536,309,537,307,535,304,534,303,534,307,532,312,530,312,529,315,527,318,529,321,529,325,527,332,525,330,515,328,477,331,484,332,487,332,492,334,496,332,499,327,498,328,501,328,503,329,509,326,511,324,510,322,511,321,513,317,513,314,512,313,508,311,514,329,515,250,418,253,420,257,420,260,421,260,423,261,421,259,418,258,415,259,412,257,407,252,404,250,402,246,400,248,396,249,395,251,396,252,396,252,396,254,398,255,399,256,399,257,398,259,398,259,400,259,402,260,404,261,403,261,401,263,401,265,404,266,406,266,407,266,411,266,413,266,415,268,416,269,416,269,414,271,409,275,408,278,410,280,410,280,410,281,412,282,412,282,414,282,418,276,419,278,420,282,419,284,418,285,418,287,417,291,419,292,416,295,416,298,417,300,418,304,420,314,435,318,444,316,446,313,443,311,443,304,443,303,442,302,443,301,444,307,444,310,444,314,450,315,452,317,454,318,458,318,461,319,464,320,467,321,471,315,472,311,468,308,465,308,465,306,465,305,466,306,467,308,469,309,472,311,472,312,473,316,477,311,479,309,476,309,484,312,485,312,481,315,480,318,477,323,482,247,416,245,415,244,414,241,414,241,416,236,417,237,414,237,411,238,408,238,407,239,406,238,402,237,399,235,397,233,394,230,392,228,390,226,389,224,389,224,388,220,386,216,384,211,382,213,381,213,379,213,374,211,370,209,369,207,367,205,366,203,367,201,366,203,365,205,363,205,363,205,363,204,358,204,356,195,347,194,345,196,345,198,345,201,346,203,348,204,348,206,348,207,347,210,350,211,353,210,355,212,358,214,359,217,358,219,359,221,361,244,380,244,374,242,372,242,364,242,361,242,355,240,356,237,357,234,348,237,347,240,347,242,343,244,343,245,342,245,341,249,334,251,333,254,332,256,331,258,329,265,319,267,314,328,285,332,284,334,282,358,250,358,248,358,246,361,247,371,230,371,230,373,230,374,230,382,226,384,225,386,222,390,221,456,210,458,212,460,213,461,215,464,218,465,220,468,221,470,225,472,224,474,224,475,226,475,229,476,230,476,235,479,235,481,235,484,236,485,238,490,239,495,239,494,239,416,207,413,208,409,208,405,207,402,204,399,202,395,196,391,190,94,279,103,284,114,287,132,291,140,292,151,293,165,305,167,308,168,310,171,314,169,317,153,316,150,317,147,318,145,321,143,327,139,330,132,333,131,335,129,335,127,335,125,334,129,367,131,369,133,370,137,374,132,376,130,379,128,379,128,377,123,376,119,373,109,395,115,401,123,404,126,406,130,405,133,406,135,408,139,410,140,413,142,413,144,414,144,418,141,419,141,421,140,423,145,427,147,428,147,429,148,430,150,433,152,435,157,435,159,438,161,439,166,440,175,449,179,452,180,453,182,454,178,455,175,456,174,459,174,459,175,460,173,461,170,463,167,466,164,465,161,466,158,464,155,469,157,474,159,476,160,479,134,439,135,438,126,435,117,433,112,435,110,438,112,440,112,442,112,445,115,448,115,453,117,454,116,441,118,446,121,452,121,458,118,459,116,456,107,452,109,449,107,444,92,433,96,440,96,454,100,455,102,458,107,465,112,466,113,468,117,471,119,474,120,477,123,478,124,479,126,479,127,481,133,485,136,486,139,489,139,496,137,498,138,501,139,501,139,504,142,510,146,519,144,517,140,519,138,524,173,447,170,439,307,432,306,432,304,433,303,430,303,428,305,427,307,425,259,284,260,283,260,283,260,282,407,222,411,222,415,222,496,267,499,265,503,265,508,263,508,262,509,262,510,261,511,260,515,259,517,258,517,257,517,257,522,253,524,253,527,258,529,258,531,259,535,257,538,256,540,245,543,243,445,202,442,203,441,206,440,207,440,211,439,215,93,375,93,371,97,371,99,372,101,372,102,372,107,370,116,370,147,447,151,460,151,467,124,579,127,578,490,374,448,374"/>  </g>  <g id="Bus" class="st-group">    <circle class="st-circle" cx="479" cy="992" r="16.5"/>    <path id="eastpaloalto" class="st-overlay" d="479,992,557,1053"/>  </g>  <g id="Shuttle" class="st-group">    <circle class="st-circle" cx="364" cy="604" r="16.5"/>    <path id="arrowhead" class="st-overlay" d="364,604,441,665"/>  </g>  <g id="Express" class="st-group">    <circle class="st-circle" cx="214" cy="578" r="16.5"/>    <path id="missioncreek" class="st-overlay" d="rect" coords="214,578,253,607"/>  </g>  <g id="Taxi" class="st-group">    <circle class="st-circle" cx="76" cy="422" r="16.5"/>    <path id="bikepath" class="st-overlay"d="76,422,130,465"/>  </g>  <g id="Carshare" class="st-group">    <circle class="st-circle" cx="224" cy="268" r="16.5"/>    <path id="westcounty" class="st-overlay" d="224,268,320,344"/>  </g>  <g id="Cars" class="st-group">    <circle class="st-circle" cx="64" cy="90" r="16.5"/>    <path id="highway37" class="st-overlay" d="64,90,170,173"/>  </g></g></svg>