<?xml version="1.0" encoding="utf-8"?>
<!-- Generator: Adobe Illustrator 16.0.0, SVG Export Plug-In . SVG Version: 6.00 Build 0)  -->
<!DOCTYPE svg PUBLIC "-//W3C//DTD SVG 1.1//EN" "http://www.w3.org/Graphics/SVG/1.1/DTD/svg11.dtd">
<svg version="1.1" xmlns="http://www.w3.org/2000/svg" xmlns:xlink="http://www.w3.org/1999/xlink" x="0px" y="0px" width="792px"
	 height="612px" viewBox="0 0 792 612" enable-background="new 0 0 792 612" xml:space="preserve">
<g id="Layer_1">
</g>
<g id="Graphic">
	<path fill="#0D7168" d="M583.371,311.969c2.623-0.097,3.279,0.495,3.854,2.052c0.574,1.558-0.164,4.673,0.328,5.574
		c0.49,0.903-1.23,0.656-1.148,1.067c0.082,0.41,0.656-0.246,1.312,0.492c0.656,0.737,2.459,1.559,3.033,2.87
		c0.574,1.311,0.246,4.1-0.328,5.985c-0.574,1.887-0.982,2.869-1.148,3.197c-0.162,0.328,0,0.247-0.328,0.985
		c-0.326,0.737-0.244,4.018-0.244,5.002c0,0.983,1.229,1.723,1.885,3.443c0.656,1.722,1.721,8.281,2.459,11.151
		s2.543,9.432,2.625,9.84c0.082,0.41-0.082,0.573-1.146,0.573c-1.068,0-1.887-0.08-1.641-0.08s1.064,1.396,0.082,1.642
		c-0.984,0.243-0.656,0.572-0.656,0.572s-0.082,3.935-0.246,5.739c-0.164,1.804-1.148,4.756-0.902,5.74s0.738,2.377,0.82,3.199
		c0.082,0.817-1.312,1.309-2.051,1.064c-0.738-0.247-1.805,0.082-2.787-0.818c-0.984-0.903-1.969-0.822-2.379-1.231
		c-0.41-0.41-0.984-0.986-0.492-1.479c0.492-0.49,1.641-0.244,2.871-0.406c1.23-0.165,0.9-0.491,1.477-0.739
		c0.572-0.245,0.326-6.068,0.162-7.215c-0.162-1.149-0.162-2.297-0.572-2.789s-1.312-1.145-1.559-0.983
		c-0.246,0.164-1.066,0.736-0.984,1.394c0.082,0.655-1.312,0.821-1.312,0.821l-0.328,0.08c0,0-0.9,2.787-1.229,4.1
		c-0.328,1.312-1.312,4.265-1.477,5.738c-0.164,1.479-0.082,1.233,0.082,1.97c0.164,0.74,0.328,2.297-0.164,2.624
		c-0.492,0.328-2.543,0.328-4.346,0c-1.805-0.327-4.838-0.738-5.084-1.723c-0.246-0.98,0.326-1.312,1.312-1.393
		c0.982-0.082,3.115-0.082,3.854-0.328c0.738-0.245,0.982-0.983,1.311-2.296c0.33-1.312,0.492-6.972,0.492-7.953
		c0-0.985-0.082-1.559-0.082-1.559l-3.854-0.573c0,0,0.492-4.183,1.066-7.874c0.574-3.689,1.887-9.184,2.133-10.823
		c0.244-1.641,0.328-3.116-0.082-3.278c-0.41-0.166-1.477,0.244-1.805-0.166c-0.328-0.411-0.902-1.966-0.41-2.541
		c0.492-0.574,0.492-0.819,1.066-1.395c0.574-0.573,0.082-2.952,0.656-4.592c0.574-1.641,0.492-2.706,0.492-2.706
		s0.082-1.064,0-1.476s-1.066-0.984-0.738-1.97c0.328-0.982,1.557-2.622,2.377-3.525c0.82-0.901,0.74-1.064,1.23-1.721
		c0.492-0.657,0.246-1.64,0.656-1.804s0.738,0.492,1.066,0c0.328-0.491-0.082-1.312-0.492-1.229c-0.41,0.081-1.887,0.9-2.133,0.327
		c-0.246-0.575,0.164-0.821-0.082-1.148s-0.328-0.983-0.328-0.983s-0.758,0.092-0.865-0.087c-0.107-0.178,0.107-2.028,0.25-2.277
		c0.143-0.25-0.143-1.994-0.035-2.421c0.107-0.428,1.246-2.493,1.992-3.063C581.605,312,582.252,312.012,583.371,311.969z"/>
	<path fill="#0D7168" d="M534.424,312.386c1.934,0,2.095,0.646,2.738,1.773c0.645,1.128,0.484,2.901,0.322,3.707
		c-0.16,0.806-1.289,3.062-1.771,3.707c-0.484,0.646-2.418,1.128-1.613,1.773c0.809,0.643,3.225,1.61,4.031,2.416
		c0.805,0.806,0.967,7.896,0.644,8.38c-0.323,0.484-0.968,0.645-0.968,0.645s0.484,5.318,0.162,6.932
		c-0.322,1.61,1.45,9.024,1.289,10.796c-0.16,1.772-0.322,9.83-0.322,9.83s0.483,1.934,0.322,3.224
		c-0.264,2.123-0.158,4.356-0.112,6.489c0.056,2.548-0.319,5.464,2.907,5.827c0.895,0.101,4.229-0.222,2.993,1.753
		c-0.517,0.826-2.166,1.239-3.094,1.444c-0.929,0.205-2.271,0.413-3.509,0.826c-1.236,0.411-1.96,0-2.166-0.518
		c-0.145-0.362-0.539-3.28,0.393-2.587c0.085-1.262-0.021-2.464-0.187-3.703c-0.206-1.547-1.134-4.744-1.649-6.603
		c-0.516-1.855-0.104-4.642-0.104-4.642l-2.371-0.103c0,0-0.618-1.34-1.342-2.992c-0.723-1.649-1.65-3.609-1.65-3.609
		s-0.93,2.681-1.238,4.022c-0.31,1.342-0.619,2.579-0.619,3.095s-1.34,0.413-1.34,0.413s-0.516,4.126-0.516,5.568
		c0,1.444-0.412,4.745-0.311,6.087c0.104,1.342,0.311,1.857,0.826,3.3c0.516,1.444,0.826,2.373,0.826,2.373s0.514-0.103,0.514,0.516
		c0,0.619,0.828,0.411-1.443,0.619c-2.27,0.205-1.754,0.516-2.889-0.206c-1.133-0.723-0.515-1.031-0.721-2.476
		c-0.207-1.444,0.516-1.65,0.412-3.197c-0.103-1.548-0.824-3.818-1.03-5.261c-0.208-1.444-0.517-3.404-0.62-4.437
		c-0.104-1.031,0.93-3.094,0.93-3.094l-0.827-0.411c0,0,0.518-8.46,0.414-10.626c-0.104-2.165-0.414-3.713-0.414-3.713
		s0.104-0.618-0.103-1.236c-0.207-0.621,0-1.858,0-1.858s-1.031-0.103-1.445-1.031c-0.41-0.927-0.514-1.753-0.928-2.474
		c-0.41-0.724-2.475-5.57-2.371-6.294c0.102-0.721-0.826-2.269-0.826-2.269c0.207-0.824,0.619-1.753,1.342-2.371
		c0.722-0.62,3.093-4.85,4.125-6.294c1.033-1.442,1.033-2.474,2.271-2.887c1.236-0.413,2.475-0.516,3.609-0.929
		c1.133-0.411,2.989-1.032,2.989-1.032s0.414-1.339,0.414-1.855c0-0.516-0.62-1.134-0.724-1.857c-0.102-0.721,0-1.649,0.104-2.062
		c0.105-0.411,1.445-1.961,2.271-2.477C532.875,312.283,534.424,312.386,534.424,312.386z M522.151,331.323
		c0,0-0.823,0.822-1.543,1.543c-0.72,0.722-1.339,1.338-1.339,2.059c0,0.722,0.309,2.78,0.824,3.707
		c0.515,0.927-0.104,2.472,0.72,3.191c0.823,0.721,0.926,1.545,1.546,1.34c0.615-0.208-0.414-2.575-0.105-3.604
		c0.311-1.029,0.105-2.574,0.105-3.81C522.359,334.515,522.151,331.323,522.151,331.323z"/>
	<path fill="#16497D" d="M474.956,313.117c0,0,1.607-0.69,2.527,0c0.919,0.689,2.642,3.445,2.526,4.595
		c-0.114,1.148-0.229,1.607-0.229,2.641c0,1.035,0,1.495,0.229,1.839s0.229,0.344,0.229,0.344l-1.493,0.461
		c0,0-0.344,1.033,0.345,1.493c0.689,0.46,2.297,0.919,3.445,1.264c1.15,0.346,1.608,0.229,2.068,0.919
		c0.461,0.689,1.609,4.711,2.299,5.975c0.688,1.263,0.803,2.756,0.918,4.249c0.114,1.494-0.92,5.629-1.264,5.629
		s-0.804-0.688-0.804-0.688s-0.23,0.574-0.574,0.919c-0.345,0.344-1.264,0-1.264,0s0.001,1.493,0.459,2.412
		c0.46,0.919,0.574,3.562,0.574,3.562l-0.574-0.116c0,0,0.46,3.217,0.46,6.663c0,3.447-0.116,6.778-0.116,6.778h-2.066
		c0,0-0.116,1.377,0,2.067c0.114,0.689-0.115,5.398-0.46,6.202c-0.344,0.804-1.838,4.825-1.953,5.4
		c-0.114,0.573-0.344,1.494,0,2.183c0.345,0.688,1.035,3.102,1.379,3.332c0.345,0.229,0,1.492,0,1.492s-0.804,0.688-1.379,0.574
		c-0.573-0.114-1.837-0.229-1.952-0.688s-0.23-2.412-0.346-2.757c-0.114-0.346-0.573-1.15-0.573-1.494s-0.919-0.573-0.46-1.264
		c0.46-0.689,0.689-0.919,1.033-1.953c0.346-1.034,0-2.987,0.115-4.021c0.115-1.031-0.344-1.952,0.115-3.904
		c0.46-1.953,0.346-2.183,0.46-3.102s-0.114-1.493-0.114-1.493s-1.609,0.229-2.528,0c-0.918-0.229-2.183-0.346-2.183-0.346
		s-1.032,1.839-1.379,2.872c-0.344,1.034,0,2.413-0.344,3.562c-0.344,1.148-0.919,3.445-1.148,4.479s-0.229,2.527-0.229,2.527
		s0.229,0.688,0.344,1.263c0.115,0.575-0.23,2.069-0.46,2.643c-0.229,0.575-0.114,1.609-0.114,1.609l-0.23,0.688
		c0,0,0,1.379-0.804,1.379s-2.412,0.345-2.643-0.345c-0.229-0.689-0.229-1.838,0.46-2.986c0.689-1.148,0.92-1.377,1.034-2.643
		c0.115-1.263-0.23-1.379-0.345-3.445c-0.115-2.068-0.459-4.251-0.229-5.858c0.229-1.609,0.919-5.284,0.919-5.284l-0.919-0.805
		c0,0,0.229-1.839,0.344-2.527c0.116-0.688,0-1.607,0.116-2.297c0.114-0.69,0.114-2.758,0.114-2.758s-0.689-0.459-0.804-1.378
		c-0.115-0.919,0.216-3.727,0.216-3.727l-0.563-0.125c0,0,0.126-15.216,0.501-17.345c0.376-2.13,1.002-5.636,2.255-5.948
		c1.252-0.313,2.19-0.188,2.881-0.502c0.688-0.312,1.063-0.501,1.377-0.751s0.5-1.064,0.313-0.939
		c-0.188,0.126-0.501,0.501-0.752,0.501s-1.002-0.501-1.002-0.501s-2.755-3.883-1.439-7.074c1.314-3.194,1.877-2.568,2.379-2.944
		c0.501-0.375,1.064-0.062,1.064-0.062L474.956,313.117z M482.608,333.724c-0.063,0.688-0.376,0.813-0.502,1.314
		c-0.125,0.501,0.126,1.378,0.313,2.316c0.188,0.938,0.063,2.38,0.063,2.38s0.438,0.375,0.688,0.5
		c0.251,0.126,0.377,0.439,0.689,0.313c0.313-0.125,0.313-0.626,0.313-0.939c0-0.312,0.438-0.876,0.563-1.315
		c0.125-0.438,0.438-0.751,0.312-1.439c-0.125-0.688-0.501-1.44-0.938-2.191c-0.438-0.751-1.189-2.379-1.189-2.379
		S482.671,333.034,482.608,333.724z M470.272,339.671c0,0-0.375,1.816-0.5,2.505c-0.126,0.689-0.251,2.317-0.313,2.818
		c-0.063,0.5,0.25,2.254,0.25,2.254s0.063-1.377,0.188-2.316c0.125-0.94,0.125-1.314,0.313-2.192
		C470.397,341.863,470.022,339.608,470.272,339.671z"/>
	<path fill="#926C28" d="M368.635,312.298c1.28,0.768,1.92,1.278,2.302,2.557c0.385,1.279,0,3.069-0.128,4.349
		c-0.128,1.278-0.767,1.661-1.149,2.43c-0.385,0.769-0.513,0.896-0.513,1.279s0.384,1.28,1.024,1.534
		c1.825,0.729,4.359,0.248,5.246,2.558c0.394,1.024,0.051,1.86,0.124,2.942c0.17,2.549,1.796,2.576,3.295,3.954
		c0.187-0.988,1.686-2.557,2.355-3.284c0.626-0.678,1.618-3.188,2.525-3.389c1.397-0.312,1.05,1.971,2.822,1.312
		c0.454-0.169,0.993-1.372,1.38-0.643c0.473,0.89-1.578,1.708-1.913,2.282c-0.982,0.3-1.329,0.614-2.053,1.145
		c-0.436,0.319-1.364,0.551-1.732,0.949c-0.439,0.476-0.561,1.58-0.926,2.119c-0.347,0.515-0.821,1.287-1.245,1.824
		c-0.936,1.18-2.556,2.567-3.896,1.564c-1.25-0.937-2.088-2.693-3.193-3.854c0,0-0.302,1.443-0.284,1.641
		c0.054,0.623,0.358,0.991,0.506,1.562c0.435,1.707-0.305,3.371-0.067,5.092c0.293,2.144,1.198,3.75,0.975,5.928
		c-0.175,1.689-0.168,3.389-0.344,5.024c-0.141,1.295-0.901,2.479-1.136,3.757c-0.271,1.463-1.004,2.572-1.29,3.961
		c-0.3,1.449,0.31,3.348,0.386,4.859c0.105,2.091,0.119,3.484-0.651,5.348c-0.579,1.402-1.377,3.162-1.622,4.658
		c-0.13,0.812-0.368,1.521-0.286,2.398c0.123,1.353,0.844,3.2-0.312,4.338c-0.712,0.697-7.549,1.538-7.25,0.15
		c-0.639,0.143-2.109,1-2.736,0.615c-1.606-0.98,1.124-3.152,1.226-4.382c0.138-1.665-0.637-3.274-0.672-4.938
		c-0.031-1.412-0.146-2.85-0.233-4.294c-0.085-1.438,0.47-2.755,0.521-4.169c0.065-1.703,0.38-3.758,0.072-5.436
		c-0.957-5.225-1.108-10.303-0.331-15.517c0.146-0.985,0.634-1.925,0.619-2.921c-1.655-0.479-1.922,4.245-2.283,5.223
		c-0.332,0.9-0.737,1.911-1.144,2.69c-0.239,0.459-0.925-0.106-0.357,0.858c0.312,0.529,1.118-0.215,0.969,0.777
		c-1.052,0.213-0.782,1.15-1.275,1.793c-1.49,0.143-2.846-2.578-2.261-3.822c0.387-0.824,1.355-0.848,1.61-1.914
		c0.188-0.785,0.272-1.683,0.419-2.422c0.347-1.751,0.212-3.517,0.638-5.25c0.389-1.584,1.201-2.887,1.127-4.58
		c0.004,0.059-1.187-0.238-1.296-0.758c-0.117-0.56,0.55-1.168,0.753-1.688c0.575-1.459,0.149-3.066,0.805-4.531
		c0.698-1.559,1.65-1.77,3.068-2.176c1.162-0.332,3.051-1.279,3.063-2.716c-1.233,0.501-1.964-1.959-2.157-2.736
		c-0.296-1.186,0.732-2.196-0.019-3.431c-1.836,0.039-0.158-3.561,0.511-4.152C363.963,311.229,366.673,311.122,368.635,312.298z"/>
	<path fill="#7C5473" d="M426.332,315.262c0.863,1.785,1.094,2.647,1.324,3.568c0.229,0.921,0.287,0.173,1.094,1.382
		c0.806,1.21,0.979,1.152,1.439,2.072c0.459,0.921,0.979,1.613,1.842,1.843c0.863,0.231,1.611,0.173,1.611,0.173
		s-0.402,0.633-0.92,0.576c-0.518-0.058-0.519,0.23-0.461,0.806s0,0,0.922,0.749c0.921,0.748,0.805,0.69,0.805,0.69
		s-0.287,0.229-0.689-0.059c-0.404-0.287,0,0-0.115,1.21c-0.115,1.209,0.287,1.093,0.459,2.646c0.172,1.555,0.461,2.708,0.75,4.319
		c0.287,1.61,0,3.34-0.289,3.569c-0.288,0.23-2.705-0.576-3.396-0.863c-0.69-0.288-0.633-0.346-0.461,0.171
		c0.174,0.519,0.634,1.21,1.037,3.34c0.402,2.132,0.173,6.564-0.059,8.117c-0.23,1.555-0.92,3.975-1.093,4.55
		s-0.519-0.232-0.519-0.232s-0.115-0.288-0.806,1.21c-0.69,1.497-1.438,3.685-1.497,5.066c-0.057,1.383,0.691,2.36,0.979,3.799
		c0.289,1.438-1.035,7.024-1.324,8.521c-0.287,1.497-0.518,4.26,0.115,5.239s0.346,1.324,0.691,2.131
		c0.345,0.805-0.402,0.978-0.461,1.554c-0.057,0.575-0.057,1.15-0.403,1.727c-0.345,0.576-0.863,0.059-2.187-0.402
		c-1.324-0.461-1.959-0.519-2.131-1.037c-0.172-0.518,0.346-0.805,0.807-1.381c0.46-0.575,1.266-1.095,1.209-1.958
		c-0.059-0.863-0.173-1.612-0.979-3.799c-0.807-2.188-1.843-4.778-2.131-6.852s-0.403-5.238-0.633-6.16
		c-0.23-0.92-0.518-2.244-1.152-3.454c-0.633-1.208-0.575-2.763-1.035-3.051c-0.462-0.287-1.268,0.288-1.209-0.691
		c0.058-0.978,0.518-3.742,0.402-5.642c-0.115-1.901-0.057-7.08-0.115-8.923c-0.057-1.844,0.748-2.591,0.748-2.591
		c-0.291,0.141-0.819,0.441-1.195,0.691c-0.812,0.542-2.109,2.3-3.309,1.567c-0.894-0.545-0.336-1.973-0.1-2.674
		c0.174-0.518,0.151-1.116,0.301-1.657c0.137-0.493,0.196-0.856,0.215-1.382c0.037-0.997,0.161-2.009,0.301-2.993
		c0.135-0.948,0.094-2.237,0.447-3.106c0.311-0.767,1.076-2.057,1.783-2.493c0.77-0.474,1.979-0.779,2.835-0.966
		c0.425-0.093,1.249-0.084,1.242-0.689c-0.005-0.37-0.643-0.85-0.806-1.195c-0.242-0.514-0.057-0.799,0.014-1.338
		c0.061-0.461-0.001-0.973-0.001-1.438c0-1.021-0.614-1.7-0.403-2.767c0.356-1.801,1.381-3.872,3.512-3.969
		C424.605,312.728,425.469,313.476,426.332,315.262z M417.869,333.627c0.748-0.231,0.748-1.614,0.23-1.556
		c-0.52,0.058-0.922,1.324-0.807,1.556C417.408,333.857,417.869,333.627,417.869,333.627z M430.477,332.359
		c-0.531-0.228-0.863,1.382-0.633,1.958c0.23,0.575,1.209,1.151,1.381,0.748c0.174-0.403,0.231-0.576-0.114-1.151
		S430.879,332.531,430.477,332.359z"/>
	<path fill="#7C5473" d="M264.214,309.98c0.721-0.048,2.42,0.895,3.047,1.702s0.448,1.075,0.627,1.703
		c0.18,0.628-0.179,1.524-0.179,1.524s0.538-0.271,0.717,0.089s0.179,1.524-0.358,1.883c-0.477,0.317-0.53,0.354-0.537,0.357
		c-0.788,0.526-0.574,2.873-0.523,3.75c0.575,0.282,0.768,0.84,1.307,1.112c0.718,0.363,1.728,0.603,2.512,0.878
		c1.117,0.392,2.112,0.541,2.838,1.597c0.492,0.715,0.391,1.435,0.624,2.229c0.692,2.35,2.798,4.289,3.999,6.39
		c0.357,0.627,1.165,0.808,0.896,1.703c-0.27,0.896-1.166,3.854-1.883,4.75s-1.793,3.227-1.793,3.227l-1.434-0.717
		c0,0-0.628,1.346-1.435,1.435s-1.792-0.27-1.792-0.27s0.447,0.538,0.627,1.345s0.537,2.062,0.537,2.062l-0.807,0.358
		c0,0,0.09,2.689,0.09,4.303s0.27,4.661,0.09,5.736s-0.537,1.704-0.537,2.689s-0.359,1.344-0.359,2.33s-0.089,1.702,0.18,3.137
		s0.717,5.469,0.717,6.902s-0.537,1.703-0.537,2.51s-0.09,1.075,0.089,1.523s0.628,0.09,0.538,0.986s-0.896,1.075-0.896,1.075
		s0.359,0.27,0.896,0.896s0.358,0.807,0.537,1.165c0.18,0.358,0.27,0.628,0.538,0.896s0.718,0.09,0.718,0.807
		s0.269,0.628-0.807,0.986c-1.076,0.358-2.242,0.358-2.779,0s-1.523-0.717-1.793-1.345c-0.269-0.628-0.627-0.447-0.447-1.165
		c0.179-0.718,0.179-0.718,0.179-0.718s-0.717-0.269-0.985-0.717c-0.27-0.448,0.269-1.165,0.269-1.165s-0.628-1.345-0.538-1.793
		s-0.09-3.406,0-4.033s0.09-2.599,0.18-3.227s0-2.151,0-2.151s-0.628-0.357-0.359-0.627c0.27-0.27,0.449-0.36,0.449-0.808
		s-0.09-0.358-0.18-1.075s-1.166-4.66-1.166-5.646s-0.627-3.138-0.627-3.944s-0.269-2.6-0.269-2.6s-1.075,4.931-1.613,6.454
		s-0.985,3.137-1.255,4.123s0.27,0.806,0,1.434s-0.627,0.896-0.717,1.255s0.447,1.165,0.537,2.062s-0.538,5.827-0.627,6.902
		c-0.09,1.075-0.538,4.84-0.538,4.84s-0.718,0.18-0.718,0.448s-0.179,1.166-0.357,1.793c-0.18,0.627-1.076,1.166-1.523,1.345
		c-0.449,0.179-0.18,0.985-1.793,0.627s-0.896,0.538-1.613-0.358c-0.718-0.896-0.897-0.628-0.718-0.896s0.358-0.358,0.807-0.807
		s0.358-0.628,0.718-1.255c0.357-0.627,0.268,0.001,0.357-0.627s0.27-1.255,0.27-1.255s-0.627,0.088-0.537-0.359
		c0.089-0.447,0.357-0.627,0.537-0.985s0.09-1.435,0.09-2.151s-0.18-1.344-0.09-1.972s0-6.453,0.27-7.439
		c0.268-0.986,0.717-1.703,0.807-2.958c0.089-1.255,0.089-3.407,0.089-4.393s-0.179-3.315-0.089-4.212
		c0.089-0.896,0.089-3.496,0.089-4.841s0.269-2.062,0.269-2.062l-0.896-0.717l1.166-2.958c0,0-0.717,0.089-1.345-0.09
		s-0.717-0.627-0.717-0.627l-1.435,0.717c-0.811-1.238-1.793-2.52-2.312-3.913c-0.447-1.199-2.52-3.282-2.079-4.604
		c0.271-0.807,2.151-3.135,2.778-3.763s1.166-3.139,1.793-4.124c0.566-0.89,1.209-1.659,1.55-2.504
		c0.277-0.688,0.417-0.896,1.288-1.205c0.818-0.291,1.693-0.395,2.523-0.65c0.654-0.202,1.092-0.678,1.646-0.913
		c1.091-0.465,1.609-2.376,1.079-3.419c-0.213-0.42-2.294-2.149-1.633-2.691c0.449-0.358,0.807-0.538,0.807-0.538
		s-0.896-1.704,0.18-3.048S262.869,310.07,264.214,309.98z M271.294,335.167c0,0.986-0.447,2.958-0.447,3.675
		s-0.09,1.076-0.09,1.613s0.627,0.807,1.075,0.807s0.538-0.448,0.538-0.717s1.793-2.151,1.972-2.958s0.628-1.793,0.628-1.793
		s-1.435-1.075-2.152-1.882c-0.717-0.807-1.254-2.151-1.254-2.151S271.294,334.181,271.294,335.167z M254.085,335.525
		c0.089,0.627,0,0,0.358,0.448s0.269,1.255,0.269,1.255s1.613,2.51,1.973,3.227c0.357,0.717,0.089,0.448,0.089,0.448l1.882-0.448
		c0,0-0.268-1.345-0.717-2.33c-0.447-0.985,0.18-1.793-0.09-2.778c-0.269-0.985-0.357-4.213-0.357-4.213
		C257.222,330.955,253.995,334.898,254.085,335.525z"/>
	<path fill="#926C28" d="M208.599,310.028c1.105-0.277,2.104,1.05,2.455,2.015c0.351,0.965,1.051,3.42,1.14,4.647
		c0.087,1.227-0.175,2.63,0.351,3.154c0.525,0.526,1.666,2.104,2.367,2.719c0.701,0.612,0.351,0.699,0.964,1.84
		c0.614,1.141,1.141,2.19,1.141,3.856c0,1.667,0.438,2.895,0.525,4.736c0.087,1.84,0.699,3.153,0.612,4.733
		c-0.087,1.578-0.35,7.625-0.35,8.415c0,0.788-0.176,1.315-0.701,2.017c-0.526,0.701-1.228,1.402-1.228,1.402
		s1.401,2.455,1.841,4.908c0.438,2.454,0.615,5.522,0.877,7.451c0.263,1.93,0.527,2.631,0.614,4.385
		c0.087,1.752,0.612,7.538,1.139,9.116c0.526,1.577,0.526,2.015,1.228,2.805s0.438,0.79,1.577,1.665
		c1.14,0.877,2.017,1.579,2.981,1.93c0.965,0.352,1.052,0.438,0.965,0.877c-0.088,0.438-1.052,0.175-2.542,0.524
		c-1.491,0.353-2.894-0.087-4.033,0c-1.141,0.089-2.63,0.526-2.718-0.524c-0.088-1.053,0.176-1.053,0.263-2.191
		c0.087-1.14,0.614-2.192,0.438-2.893c-0.174-0.703-2.278-5.961-2.805-7.276c-0.527-1.316-0.877-3.945-0.877-3.945
		s-2.455,0-3.682,0.175c-1.227,0.176-3.418,0-3.418,0s-0.175,3.42-0.264,5.084c-0.087,1.667,0,3.421,0.088,4.385
		c0.088,0.963,1.314,3.506,1.052,4.471c-0.263,0.964-0.352,1.928-1.14,2.365c-0.789,0.439-2.367,0.439-2.629-0.087
		s-0.35-0.876,0.263-1.666c0.613-0.788,0.701-0.7,0.789-1.665c0.088-0.964,0-2.892-0.35-3.77c-0.352-0.876-2.017-4.996-2.017-6.486
		c0-1.491,0.088-3.157,0.088-3.157s-1.401-0.351-3.418-0.964c-2.017-0.614-4.646-1.227-4.909-2.104
		c-0.263-0.875,1.226-4.384,1.753-7.1c0.526-2.719,2.367-7.717,2.717-8.77c0.352-1.05,1.404-2.364,1.579-3.328
		c0.175-0.966,0.087-2.456,0.087-2.456s-1.49,0.526-2.104-0.351s-0.875-1.578-1.227-2.191c-0.351-0.613-1.752-2.98-2.191-3.681
		c-0.438-0.701-0.79-1.141-0.79-1.141s-0.262-1.491,0.088-2.541c0.351-1.054,2.017-2.368,2.893-3.684
		c0.876-1.314,1.841-1.577,2.367-2.455c0.526-0.876,1.14-2.104,1.578-2.541c0.438-0.438,2.718-0.614,2.894-1.402
		c0.175-0.789-0.087-2.19,0.175-4.12s-0.175-4.12,0.526-5.173C206.319,310.991,207.196,310.378,208.599,310.028z M200.446,330.541
		c-0.964,0.877-1.753,1.488-1.928,2.455c-0.175,0.963,0.35,2.19,0.263,3.067c-0.088,0.876,0.351,0.262,0.351,1.227
		s0.613,0.877,1.227,0.964c0.614,0.089,0.439-0.7,0.702-1.228c0.263-0.525,0.35-0.613,0.614-1.401
		c0.263-0.789,0.35-1.403,0.438-2.629c0.088-1.228,0.295-3.646-0.088-3.858C201.234,328.7,201.41,329.664,200.446,330.541z
		 M214.883,334.921c-0.023,1.052-0.061,2.104-0.061,3.158c0,0.525-0.701,0.701-0.877,1.051c-0.174,0.352,0.177,0.79,0.438,0.965
		c0.264,0.176,0.702,0.439,0.352,1.579c-0.35,1.139-0.876,0.438-0.876,0.438s0,0.613,0,2.016s0.351,1.402,0.438,2.454
		c0.089,1.052,0.614,0.351,0.965,0c0.351-0.351,0.701-0.79,0.965-1.228c0.263-0.438,0.263-2.98,0.263-4.207
		c0-1.59-0.278-3.092-0.222-4.68c0.015-0.438-0.888-3.785-1.254-3.457C214.708,333.312,214.894,334.514,214.883,334.921z"/>
	<path fill="#4C4A31" d="M636.842,309.779c1.557,0.311,3.771,2.678,3.406,4.623c-0.363,1.947-1.459,2.556-1.217,3.408
		c0.244,0.851-1.094,2.067,0,2.554c1.096,0.486,3.529,0.974,4.381,1.703c0.852,0.73,2.799,2.798,2.92,5.354
		c0.121,2.555-0.242,6.082,0,7.421c0.244,1.337,0.852,4.137,0.607,6.083c-0.242,1.946,0.244,3.528,0.365,4.623
		c0.121,1.096,0.486,2.311,0.607,3.042c0.123,0.729,0.977,2.433-0.242,3.041c-1.217,0.609-1.945,1.704-2.434,1.459
		c-0.486-0.242,0.365-1.945,0.486-2.433c0.123-0.486-0.486-1.46-0.486-2.189c0-0.731,0.244-1.095,0.365-1.582
		c0.121-0.486-0.73-3.041-0.73-4.137c0-1.095-0.973-3.284-0.973-3.284s0.486,4.015,0.607,5.109c0.121,1.096,0.609,5.231,0.609,6.327
		c0,1.095-0.852,6.202-0.852,8.394c0,2.19,0.363,6.448,0.486,8.517c0.121,2.067,1.096,5.597,1.461,6.936
		c0.365,1.336,0.607,1.703,0.242,2.311c-0.363,0.608-0.973,0.243-0.486,1.338c0.486,1.096,1.217,1.218,1.459,2.19
		c0.244,0.974,1.217,1.703-0.363,2.189c-1.582,0.486-2.436,0.974-3.65,0.243c-1.217-0.729-1.824-0.729-1.582-1.58
		c0.244-0.853-0.73-2.069-0.486-2.921c0.242-0.852-0.244-1.46-0.244-2.19c0-0.729-0.729-2.433-0.729-3.163
		c0-0.729-1.096-4.257-1.096-5.353c0-1.095,0.121-6.813-0.244-7.665c-0.363-0.852-0.852-4.501-1.094-5.718
		c-0.244-1.218-0.73-4.745-0.73-4.38c0,0.364-0.975,3.772-1.217,4.989c-0.244,1.216-0.363,4.865-0.73,5.96
		c-0.363,1.096-0.729,4.017-0.729,5.719c0,1.703-0.121,5.839-0.609,7.422c-0.486,1.581-0.729,3.283-0.973,4.136
		c-0.244,0.852-0.244,0.852-0.244,0.852s0.244,2.434-0.486,2.798c-0.73,0.365-4.137,0.852-4.867,0.244
		c-0.729-0.608-0.607-0.486,0-1.582c0.609-1.095,1.096-1.582,1.096-2.433c0-0.853-0.244-4.015,0-5.11s0.486-3.286,0.73-4.623
		c0.242-1.339,0.121-3.285,0.121-4.622c0-1.339,0-6.937,0-7.909s-0.73-2.678-0.73-2.678s-1.945-1.093-2.432-1.701
		s-0.73-4.259-0.365-5.718c0.365-1.461,0.73-8.518,0.73-10.342c0-1.825,0.242-8.638,0.85-10.221
		c0.609-1.581,0.973-2.066,2.068-2.554c1.096-0.486,1.947-1.095,3.043-1.46c1.094-0.365,1.459-0.608,1.703-1.096
		c0.244-0.486,0.121-1.581-0.121-2.067c-0.244-0.487-1.34-3.042-1.34-4.259s1.096-3.04,1.826-3.405
		C635.26,310.023,635.625,309.536,636.842,309.779z M628.934,340.925c-0.363,0.487-0.242,0.608-0.365,1.337
		c-0.121,0.73-0.486,3.773,0,4.382c0.486,0.607,0.488-0.73,0.365-1.582c-0.121-0.853,0.486-2.19,0.609-3.163
		c0.121-0.974-0.123-2.92-0.123-2.92C628.812,338.855,629.299,340.438,628.934,340.925z"/>
	<path fill="#657880" d="M107.015,310.389c0.73,0.365,1.826,2.188,1.826,3.405s-1.096,3.771-1.34,4.259
		c-0.242,0.486-0.365,1.581-0.121,2.067c0.244,0.487,0.609,0.73,1.703,1.096c1.096,0.365,1.947,0.974,3.043,1.46
		c1.096,0.487,1.459,0.973,2.068,2.554c0.607,1.583,0.85,8.396,0.85,10.221c0,1.824,0.365,8.881,0.73,10.342
		c0.365,1.459,0.121,5.109-0.365,5.718s-2.432,1.701-2.432,1.701s-0.73,1.705-0.73,2.678s0,6.57,0,7.909
		c0,1.337-0.121,3.283,0.121,4.622c0.244,1.337,0.486,3.527,0.73,4.623s0,4.258,0,5.11c0,0.851,0.486,1.338,1.096,2.433
		c0.607,1.096,0.729,0.974,0,1.582c-0.73,0.607-4.137,0.121-4.867-0.244c-0.73-0.364-0.486-2.798-0.486-2.798s0,0-0.244-0.852
		c-0.244-0.853-0.486-2.555-0.973-4.136c-0.488-1.583-0.609-5.719-0.609-7.422c0-1.702-0.365-4.623-0.729-5.719
		c-0.367-1.095-0.486-4.744-0.73-5.96c-0.242-1.217-1.217-4.625-1.217-4.989c0-0.365-0.486,3.162-0.73,4.38
		c-0.242,1.217-0.73,4.866-1.094,5.718c-0.365,0.852-0.244,6.57-0.244,7.665c0,1.096-1.096,4.623-1.096,5.353
		c0,0.73-0.729,2.434-0.729,3.163c0,0.73-0.486,1.339-0.244,2.19c0.244,0.852-0.73,2.068-0.486,2.921
		c0.242,0.851-0.365,0.851-1.582,1.58c-1.215,0.73-2.068,0.243-3.65-0.243c-1.58-0.486-0.607-1.216-0.363-2.189
		c0.242-0.973,0.973-1.095,1.459-2.19c0.486-1.095-0.123-0.729-0.486-1.338c-0.365-0.607-0.123-0.975,0.242-2.311
		c0.365-1.339,1.34-4.868,1.461-6.936c0.123-2.068,0.486-6.326,0.486-8.517c0-2.191-0.852-7.299-0.852-8.394
		c0-1.096,0.488-5.231,0.609-6.327c0.121-1.095,0.607-5.109,0.607-5.109s-0.973,2.189-0.973,3.284c0,1.096-0.852,3.65-0.73,4.137
		c0.121,0.487,0.365,0.851,0.365,1.582c0,0.729-0.609,1.703-0.486,2.189c0.121,0.487,0.973,2.19,0.486,2.433
		c-0.488,0.245-1.217-0.85-2.434-1.459c-1.219-0.608-0.365-2.312-0.242-3.041c0.121-0.731,0.486-1.946,0.607-3.042
		c0.121-1.095,0.607-2.677,0.365-4.623c-0.244-1.946,0.363-4.746,0.607-6.083c0.242-1.339-0.121-4.866,0-7.421
		c0.121-2.556,2.068-4.623,2.92-5.354c0.852-0.729,3.285-1.217,4.381-1.703c1.094-0.486-0.244-1.703,0-2.554
		c0.242-0.853-0.854-1.461-1.217-3.408c-0.365-1.945,1.85-4.312,3.406-4.623C105.921,309.536,106.286,310.023,107.015,310.389z
		 M112.126,338.979c0,0-0.244,1.946-0.123,2.92c0.123,0.973,0.73,2.311,0.609,3.163c-0.123,0.852-0.121,2.189,0.365,1.582
		c0.486-0.608,0.121-3.651,0-4.382c-0.123-0.729-0.002-0.85-0.365-1.337C112.247,340.438,112.733,338.855,112.126,338.979z"/>
	<path fill="#4C4A31" d="M157.267,309.488c2.348,0,5.076,1.057,5.71,2.644c0.635,1.586,0.211,3.278,0.211,4.759
		s-1.691,1.691-1.585,2.855c0.106,1.163-1.586,1.374-1.163,1.903c0.422,0.528,1.268,0.846,2.22,1.058
		c0.952,0.212,1.269,0.74,1.692,2.009c0.423,1.27-0.211,6.238,0.105,7.508c0.318,1.27,0.423,3.067,0.634,4.23
		c0.212,1.163,0,1.376,0.423,3.173c0.423,1.797,0.529,3.701,0.529,4.652c0,0.952,0.317,0.846,0.423,2.221
		c0.105,1.375,0.316,1.375,0.422,1.904c0.106,0.528-0.634,0.951-0.74,1.902c-0.105,0.952-0.317,1.164-0.529,1.798
		c-0.211,0.635-0.74,0.528-0.634,1.586c0.105,1.058,0,9.94,0,9.94l-0.846,0.529c0,0,0.529,1.374,0.317,3.489
		c-0.211,2.115,0.212,8.249,0.212,9.624c0,1.374-0.212,1.162,0.635,2.113c0.845,0.953,1.903,1.058,1.903,1.799
		c0,0.74,0.634,1.48-0.529,1.48c-1.164,0-1.058,0.423-2.327-0.212c-1.269-0.635-0.952,0.424-1.269-0.635
		c-0.317-1.058-0.211-3.489-0.211-4.652s-1.163-4.441-1.269-5.499c-0.106-1.058-1.058-2.749-0.847-4.547
		c0.212-1.798,0.212-2.645,0.212-2.645l-5.71,0.318c0,0-1.269,3.911-1.375,5.815c-0.105,1.904-0.951,6.769-1.163,7.932
		c-0.211,1.163,0.845,3.595-0.211,3.912c-1.057,0.317-3.173,1.479-3.913,0.635c-0.74-0.846,1.164-2.645,1.692-3.384
		c0.529-0.74,0.317-1.27,0.423-2.644c0.106-1.376-0.211-8.354-0.317-9.94c-0.106-1.587,0.634-2.222,0.634-2.855
		c0-0.635-1.163-0.847-1.163-0.847s-0.529-8.036-0.106-9.305c0.422-1.27,0.21-2.327,0.21-2.327s-1.585-1.48-1.48-2.221
		s0.106-0.847,0.529-1.691c0.423-0.846-0.846-7.932-0.74-9.306c0.106-1.375,0.105-13.008,0.846-14.383
		c0.741-1.374,1.374-1.797,2.221-2.326c0.846-0.528,0.846-0.528,0.846-0.528s-0.634-2.01-0.846-3.808
		c-0.212-1.797,0.846-4.123,1.163-5.815C152.825,310.017,155.152,309.488,157.267,309.488z M151.133,335.29
		c-0.211,1.27-0.634,5.499,0,5.923c0.635,0.423,0.212-1.164,0.635-2.327c0.423-1.162,0.634-1.269,0.846-2.749
		c0.212-1.479,0.009-5.142-0.846-4.97C150.711,331.379,151.345,334.022,151.133,335.29z"/>
</g>
<g id="Text">
	<path fill="#16497D" d="M317.354,312.797c-1.267,0.449-2.943,2.239-3.496,3.398c-0.551,1.159,0.621,2.401,0.867,3.2
		c0.244,0.799,0.706,0.905,0.607,1.711c-0.1,0.807,0.573-0.011-0.1,0.807c-0.674,0.817-1.696,1.41-2.133,2.567
		c-0.438,1.158-1.139,0.598-1.438,2.899c-0.3,2.305-0.673,6.793-0.419,8.05c0.254,1.26,0.873,3.546,0.667,4.812
		c-0.206,1.268-0.856,3.233-0.833,4.496c0.025,1.263-0.752,2.656-0.732,3.689c0.02,1.035,1.005,4.461,1.036,6.069
		c0.031,1.606,0.935,6.76,0.849,8.254s-1.18,4.389-1.383,5.77c-0.203,1.383-0.766,7.941-0.766,7.941l1.957,0.192l0.225,2.039
		c0,0-1.379,1.38-1.264,1.953c0.115,0.574-0.919,2.412,0.115,2.642c1.033,0.23,3.445,0,4.708,0c1.265,0,3.562,0.115,4.479,0
		c0.919-0.115,1.264-0.919,1.264-0.919s0.689-0.114,0.805-0.574c0.113-0.459,0.229-1.149-0.23-1.033
		c-0.459,0.115-1.303,0.35-1.992,0.119c-0.688-0.229-1.338-1.383-2.027-1.612c-0.689-0.23-0.689-0.574-1.264-0.92
		c-0.574-0.345-1.148-0.688-1.148-0.688l-0.004-1.535c0,0,2.995-11.431,3.648-13.281c0.654-1.851,0.195-1.842,0.709-4.953
		c0.516-3.112,1.439-8.757,1.19-9.788c-0.249-1.028,0.494-4.145,0.354-5.405c-0.139-1.26,0.159-3.68,0.159-3.68
		s1.224-2.092,1.196-3.469c-0.025-1.377,0.518-2.996,0.723-4.264c0.205-1.269,1.322-2.898,1.308-3.703
		c-0.016-0.803,0.081-1.724-1.3-1.812c-1.379-0.088-0.584-0.562-1.379-0.088c-0.796,0.476,0.031,1.723-0.65,2.079
		c-0.682,0.359-0.485-1.368-0.705-0.903c-0.221,0.463-0.205,1.268-0.08,1.839c0.126,0.571,0.494,1.828,0.501,2.174
		c0.007,0.345,0.601,1.366-0.093,1.149c-0.693-0.216-0.711-1.134-0.85-2.396c-0.139-1.261,0.404-2.879-0.42-3.897
		c-0.824-1.017-0.577-0.102-0.824-1.017s0.332-0.697,1.019-0.825s2.073,0.307,1.952-0.037c-0.122-0.342,0.322-1.153,0.322-1.153
		l0.559-0.816l-0.014-0.689l0.68-0.472l-0.128-0.687l-0.479-1.024l0.442-0.813l-0.358-0.797l-0.133-0.917
		c0,0,1.138-0.597,0.438-1.042c-0.697-0.445-1.633-1.347-2.793-1.899C319.54,312.984,319.065,312.188,317.354,312.797z"/>
</g>
</svg>
