<?xml version="1.0" encoding="utf-8"?>
<!DOCTYPE svg PUBLIC "-//W3C//DTD SVG 1.1//EN" "http://www.w3.org/Graphics/SVG/1.1/DTD/svg11.dtd">

<svg width="710" height="80" xmlns="http://www.w3.org/2000/svg" xmlns:svg="http://www.w3.org/2000/svg">
 <g>
  <title>Layer 1</title>
  <g stroke="null" id="svg_1">
   <g stroke="null" id="svg_2">
    <path stroke="null" id="svg_3" d="m2.002998,64.5"/>
    <path stroke="null" id="svg_4" d="m386.832001,26.942993c-0.700012,4.666 -4.354004,8.319992 -8.709015,8.319992c-3.343994,0 -4.820984,-1.632996 -6.453979,-3.653992l-0.312012,0.154999l0,16.718002c0,5.36499 2.877991,8.08699 9.565002,9.40799l4.433014,-4.431992l0.932983,0.932999l-10.342987,10.109009c-9.718994,-1.477997 -14.074005,-7.231003 -14.074005,-14.386002l0,-11.897003c0,-1.313995 -0.076996,-2.098999 -0.621979,-2.799988c5.36499,-2.332001 12.985992,-6.997009 17.496979,-10.807007c0.854004,1.166992 2.56601,2.643997 4.51001,2.643997c0.985992,0 2.067993,-0.296997 2.876007,-0.778c0.446991,-0.265991 0.773987,-0.026001 0.699982,0.466995z"/>
    <polygon stroke="null" id="svg_5" points="322.6809997558594,13.723007202148438 317.0830078125,19.399993896484375 311.25,14.035003662109375 316.927001953125,8.125 "/>
    <path stroke="null" id="svg_6" d="m330.458008,56.335007l-8.242004,8.165009c-4.199982,-1.478012 -7.388,-4.411011 -7.388,-9.253006l0,-19.050995c0,-2.212997 -0.869995,-3.781998 -2.876984,-4.820007l-2.799011,2.798996l-0.855011,-0.854996l8.787018,-8.787003c5.673004,3.044006 7.230988,6.475998 7.230988,10.419006l0,18.817001c0,2.005997 0.856018,3.266998 2.877014,4.043991l2.333008,-2.410995l0.932983,0.932999z"/>
    <path stroke="null" id="svg_7" d="m309.462006,26.942993c-0.699982,4.666 -4.354004,8.319992 -8.708984,8.319992c-3.343018,0 -4.821014,-1.632996 -6.45401,-3.653992l-0.311005,0.154999l0,16.718002c0,5.36499 2.877014,8.08699 9.563995,9.40799l4.433014,-4.431992l0.932983,0.932999l-10.34201,10.109009c-9.720001,-1.477997 -14.074005,-7.231003 -14.074005,-14.386002l0,-11.897003c0,-1.313995 -0.078003,-2.098999 -0.621979,-2.799988c5.36499,-2.332001 12.984985,-6.997009 17.495972,-10.807007c0.855011,1.166992 2.565002,2.643997 4.51001,2.643997c0.985992,0 2.070007,-0.296997 2.877014,-0.778c0.445007,-0.265991 0.77301,-0.026001 0.699005,0.466995z"/>
    <path stroke="null" id="svg_8" d="m283.179993,56.645996l-7.932007,7.854004c-4.354004,-1.632996 -7.619995,-4.542007 -7.619995,-9.175995l0,-16.097c0,-4.89801 -0.700012,-6.764008 -4.743988,-8.475006l-3.888,3.809006l0,19.595993c0,2.400009 1.088989,3.421005 3.266998,4.277008l-6.06601,6.064987c-4.89801,-1.944 -6.687012,-4.742996 -6.687012,-9.64299l0,-19.05101c0,-2.876999 -0.777985,-3.809998 -2.877991,-4.58699l-2.100006,2.098999l-0.932983,-0.854996l7.854004,-7.932007c5.054993,1.244003 7.309998,4.587997 7.464996,8.320007l8.39798,-8.320007c6.45401,1.477997 9.798004,4.897995 9.798004,11.585007l0,18.584c0,1.937988 1.011017,2.955002 2.721008,3.421997l2.333008,-2.410995l1.011993,0.935989z"/>
    <path stroke="null" id="svg_9" d="m217.240005,26.865005c-1.166992,4.818008 -4.19899,8.008011 -8.787003,8.008011c-2.697998,0 -4.587997,-1.243011 -5.909988,-2.643005l-0.233002,0.154999l0,20.061996c0,2.799011 0.388992,4.199005 4.432999,5.365005l2.410995,-2.488007l0.932999,0.934006l-8.319992,8.242004c-6.688004,-1.866013 -8.942001,-5.410004 -8.942001,-10.809006l0,-16.718994c0,-2.955002 -0.699997,-4.665009 -2.722,-5.209l-2.488007,2.487991l-0.932999,-0.932999l8.78801,-8.787003c3.809998,0.699997 6.297989,4.044006 6.453995,6.999008l7.231003,-6.999008c0.932999,1.399002 2.722,2.876999 4.354996,2.876999c1.011002,0 2.098999,-0.310989 2.876999,-0.932999c0.432999,-0.347 0.950989,-0.017014 0.852997,0.389999z"/>
    <path stroke="null" id="svg_10" d="m169.339996,5.869995c-1.98999,4.175003 -5.391998,7.231003 -11.35199,7.231003c-3.266006,0 -9.242004,-2.255005 -11.586014,-2.255005c-3.731995,0 -5.365997,1.147995 -5.365997,3.344009c0,0.755005 0.544006,1.358002 1.322006,1.556c0.692001,0.175003 1.244003,0.591995 1.244003,1.087997c0,0.621994 -0.389008,1.011002 -1.089005,1.011002c-1.710999,0 -3.343994,-1.943008 -3.343994,-5.287994c0,-5.600006 4.827988,-9.643005 10.575989,-9.643005c4.460007,0 10.427002,3.966995 13.451004,3.966995c2.333008,0 3.966003,-0.623001 5.677002,-1.866989c0.580002,-0.422012 0.806,0.145996 0.466995,0.855988z"/>
    <path stroke="null" id="svg_11" d="m127.738998,56.645996l-7.931,7.854004c-4.354996,-1.632996 -7.621002,-4.542007 -7.621002,-9.175995l0,-16.097c0,-4.89801 -0.699997,-6.764008 -4.744003,-8.475006l-3.888,3.809006l0,19.595993c0,2.400009 1.089005,3.421005 3.267014,4.277008l-6.065002,6.064987c-4.899002,-1.944 -6.686996,-4.742996 -6.686996,-9.64299l0,-19.05101c0,-2.876999 -0.778,-3.809998 -2.877007,-4.58699l-2.099998,2.098999l-0.932999,-0.854996l7.852997,-7.932007c5.054001,1.244003 7.309006,4.587997 7.464996,8.320007l8.39801,-8.320007c6.454987,1.477997 9.797989,4.897995 9.797989,11.585007l0,18.584c0,1.937988 1.011002,2.955002 2.722,3.421997l2.333008,-2.410995l1.009995,0.935989z"/>
    <path stroke="null" id="svg_12" d="m417.080994,54.080002c-4.907013,2.240005 -12.694,6.703995 -18.274017,10.419998c-6.375,-1.477997 -10.573975,-5.442993 -10.573975,-11.975998l0,-14.384995c0,-1.419006 -0.154999,-2.255005 -0.622009,-2.876007c5.131989,-2.255005 14.151001,-7.417999 18.428986,-10.419998c6.143005,1.399994 10.496002,5.598999 10.496002,11.662994l0,14.074997c-0.000977,1.789001 0.222015,2.806 0.545013,3.499008zm-10.029999,4.587997l0,-19.673996c0,-5.054001 -3.423004,-7.774002 -8.942993,-8.475006l-0.389008,0.156006l0,19.360992c0,5.988007 3.421021,7.932007 8.86499,8.865005l0.46701,-0.233002z"/>
    <path stroke="null" id="svg_13" d="m357.828003,26.554001c0,0 -3.916992,6.181 -9.175995,13.373993c4.665985,1.166 7.854004,3.583008 7.854004,8.009003l0,5.677002c0,0.561005 0.240997,1.947006 0.699982,2.643997c-3.811005,1.428009 -10.846008,5.065002 -15.317993,8.242004c-1.554993,-1.477997 -2.876007,-2.100006 -5.053986,-2.100006c-3.811005,0 -6.999023,2.098999 -6.999023,5.209991c0,0.582001 0.483002,1.087006 1.011017,1.322021c0.572998,0.255005 1.010986,0.694 1.010986,1.165985c0,0.777008 -0.699982,1.244019 -1.243988,1.244019c-1.632996,0 -2.177002,-1.788025 -2.177002,-3.888c0,-3.499008 2.971008,-6.499008 6.065002,-10.653015c0,0 4.608978,-6.270996 5.677002,-7.621002c-6.143005,-2.098999 -9.487,-4.373993 -9.487,-8.940994l0,-3.188995c0,-1.356003 -0.078003,-2.488007 -0.622009,-3.499008c4.042999,-1.320999 11.819,-6.218994 15.707001,-8.940994c1.105988,1.591003 3.575989,2.876999 5.286987,2.876999c2.411011,0 4.356018,-0.701004 6.221008,-1.710007c0.563995,-0.306992 1.080994,-0.005997 0.544006,0.777008zm-4.899017,4.899002l-0.156006,-0.156006c-1.867004,1.522003 -3.996979,2.721008 -6.141998,2.721008c-3.251984,0 -4.665985,-1.477005 -6.220978,-3.499008l-0.312012,0.078003l0,6.763992c0,2.769012 1.325989,3.576004 5.132996,4.821014c2.906006,-3.805008 7.697998,-10.729004 7.697998,-10.729004zm-5.90799,26.826004l0,-6.765991c0,-3.188004 -0.855988,-3.965012 -3.343994,-4.743011c-2.644012,3.576004 -7.932007,10.807999 -7.932007,10.807999l0.156006,0.078003c1.944,-1.321991 4.042999,-1.710999 5.520996,-1.710999c2.098999,0 4.199005,1.011002 5.36499,2.488007l0.234009,-0.154007z"/>
    <path stroke="null" id="svg_14" d="m245.699005,56.957993l-7.541992,7.541992c-3.032013,-0.932999 -6.687012,-3.265991 -7.386993,-7.309998l-0.156006,0l-9.718994,7.309998c-4.432007,-1.320999 -7.310013,-5.598999 -7.310013,-10.030991c0,-7.387009 7.698013,-11.431 16.951004,-12.831009l0,-2.565994c0,-4.354004 -1.632996,-7.386002 -9.485992,-7.542007l-2.56601,2.487l-0.934006,-0.854996l8.630997,-8.630997c7.542999,0 13.841003,4.897995 13.841003,12.363007l0,17.417999c0,2.696991 1.244995,3.498993 2.488007,3.965988l2.255005,-2.177994l0.93399,0.858002zm-15.162018,-1.011993l0,-13.063004c-4.820984,1.477997 -7.854004,4.195007 -7.854004,8.863998c0,3.966003 1.477997,5.754013 4.122009,6.844009l3.731995,-2.645004z"/>
    <path stroke="null" id="svg_15" d="m195.856003,8.669006c-1.087997,3.963989 -4.408997,8.242996 -9.798004,8.242996c-1.653,0 -3.082993,-0.320007 -4.587997,-1.012009l0,11.12001l6.220993,0l-3.576996,7.696991l-2.645004,0l0,29.783005c0,0.343002 -0.388,0.544006 -0.69899,0.544006c-0.312012,0 -0.699997,-0.169006 -0.699997,-0.544006l0,-29.781998l-4.665009,0l0,10.653c0,11.022003 -4.871994,13.544998 -16.873993,21.384003c-3.511002,-2.939011 -6.325012,-5.28801 -12.285004,-5.28801c-8.882996,0 -11.975998,3.016006 -11.975998,6.999008c0,2.658997 1.205002,3.29599 2.177002,3.731995c0.543991,0.243988 1.088989,0.612 1.088989,1.243988c0,0.699005 -0.466995,1.088013 -1.166,1.088013c-2.021988,0 -3.733002,-2.395996 -3.733002,-7.619995c0,-7.701004 6.195007,-14.230011 17.030014,-14.230011c7.438995,0 11.626999,2.677002 15.395996,6.609009l0,-42.688995l-3.031998,1.399994l0,19.283997c0,6.367996 -1.931,10.938004 -12.596008,14.307999c-0.488998,0.154007 -0.93399,-0.233002 -0.388992,-0.621994c3.056992,-2.182999 3.965988,-3.307007 3.965988,-8.242996l0,-8.009003l-1.71199,0c-3.856003,0 -4.307007,1.369995 -4.587997,3.110992c-0.031006,0.192001 -0.313004,0.376999 -0.699005,0c-0.725006,-0.707993 -1.556,-2.186996 -1.556,-4.19899c0,-4.753006 2.772003,-6.609009 7.309998,-6.609009l1.244003,0l0,-1.399002c0,-2.332993 -0.263,-3.811996 -0.854996,-4.97699c10.205994,-3.674011 21.916992,-8.981003 31.959,-16.330002c1.442993,1.639999 3.561996,4.121002 8.164993,4.121002c1.011002,0 2.020996,-0.154999 2.798996,-0.544006c0.651001,-0.326996 0.992004,-0.005997 0.777008,0.777008zm-15.785004,18.35199l0,-11.664001c-1.975998,-1.12999 -3.419006,-2.735001 -4.199005,-4.509995l-0.465988,0.311996l0,15.863007l4.664993,0l0,-0.001007z"/>
    <path stroke="null" id="svg_16" d="m90.260002,56.957993l-7.542999,7.541992c-3.033005,-0.932999 -6.687004,-3.265991 -7.387001,-7.309998l-0.154999,0l-9.720001,7.309998c-4.431999,-1.320999 -7.308998,-5.598999 -7.308998,-10.030991c0,-7.387009 7.697998,-11.431 16.950996,-12.831009l0,-2.565994c0,-4.354004 -1.633003,-7.386002 -9.486,-7.542007l-2.566002,2.487l-0.932999,-0.854996l8.630997,-8.630997c7.543007,0 13.842003,4.897995 13.842003,12.363007l0,17.417999c0,2.696991 1.244003,3.498993 2.487999,3.965988l2.255005,-2.177994l0.931999,0.858002zm-15.164001,-1.011993l0,-13.063004c-4.820999,1.477997 -7.854004,4.195007 -7.854004,8.863998c0,3.966003 1.478004,5.754013 4.121002,6.844009l3.733002,-2.645004z"/>
    <path stroke="null" id="svg_17" d="m58.921997,38.761993c0,6.873001 -5.32,12.376999 -10.808998,18.507004c-2.785995,3.112 -5.685997,6.291992 -8.396996,9.330978c-3.742004,-3.737991 -9.225006,-6.219986 -15.474003,-6.219986c-10.024002,0 -15.318001,3.427994 -15.318001,7.931992c0,2.177002 0.699001,3.226013 1.555,3.576996c0.949001,0.389008 1.709999,0.75 1.709999,1.632019c0,0.742981 -0.621998,1.010986 -1.243999,1.010986c-2.021,0 -3.654999,-3.023987 -3.654999,-7.30899c0,-7.968002 6.181,-16.096008 20.062,-16.096008c8.278996,0 13.711002,2.673004 18.195995,6.609009c2.178001,-2.542999 6.609001,-8.055008 6.609001,-13.219009c0,-8.049988 -5.374001,-10.937988 -13.218994,-12.440994l-3.655006,-0.699997l-1.167,1.632996l3.811005,0.777008c7.376999,1.505997 11.974998,4.108994 11.974998,10.496994c0,4.042999 -1.633003,6.921005 -3.265999,8.865005c0.055,-0.56601 0.076996,-1.098999 0.076996,-1.633011c0,-4.627991 -3.165001,-8.207993 -13.296997,-10.340988l-4.431999,-0.932999c-4.199001,5.441986 -6.431,7.230988 -9.409,7.230988c-1.720001,0 -2.489002,-0.621994 -2.489002,-1.399994c0,-0.854996 0.700001,-1.322006 1.633003,-1.322006c0.855,0 1.320999,1.089005 2.176998,1.089005c1.556,0 3.499001,-1.944 6.688,-5.910004l-3.111,-0.699997c-7.727001,-1.737991 -11.43,-4.742996 -11.43,-9.563004c0,-3.030991 1.243,-4.705994 2.333,-5.287994c1.716999,3.942993 5.713001,5.869995 13.529999,7.464005l3.810005,0.778l1.166,-1.633011l-3.732002,-0.776993c-11.077,-2.309006 -14.385002,-5.610001 -14.385002,-12.442001c0,-7.699997 6.532001,-14.151993 17.107002,-14.151993c6.692001,0 11.756996,2.012985 16.406998,5.209l2.099998,-2.644012c0.215004,-0.270996 0.471001,-0.310989 0.700005,-0.310989c0.311996,0 0.599998,0.17099 0.621994,0.465988c0.009003,0.12001 0.028,0.252014 -0.076996,0.389008c-3.928001,5.069992 -8.981003,11.770996 -11.585999,16.097c11.119995,1.944016 17.883995,5.751007 17.883995,15.940002zm-15.005997,-22.705994c-3.341003,-3.923004 -9.378998,-9.332001 -16.874001,-9.332001c-4.48,0 -7.153999,2.147995 -7.153999,6.143997c0,3.13501 3.030998,6.190002 11.196999,7.854004l8.398003,1.710999c1.307999,-1.817001 4.432999,-6.376999 4.432999,-6.376999z"/>
    <path stroke="null" id="svg_18" d="m421.669006,64.5"/>
   </g>
   <g stroke="null" id="svg_19">
    <path stroke="null" id="svg_20" d="m419.867004,64.5"/>
    <path stroke="null" id="svg_21" d="m679.971985,56.179993l-8.320984,8.319992c-4.276001,-1.477997 -7.465027,-4.25499 -7.465027,-9.252991l0,-38.569c0,-2.214005 -0.869019,-3.781998 -2.877014,-4.820007l-2.79895,2.722l-0.855042,-0.856003l8.786987,-8.709c5.987,2.333008 7.230042,6.477005 7.230042,10.420013l0,38.334c0,2.005997 0.777954,3.266998 2.799988,4.043991l2.565979,-2.487991l0.934021,0.854996z"/>
    <polygon stroke="null" id="svg_22" points="627.8729858398438,13.723007202148438 622.2730102539062,19.399993896484375 616.4409790039062,14.03399658203125 622.1190185546875,8.125 "/>
    <path stroke="null" id="svg_23" d="m661.387024,26.942993c-0.700012,4.666 -4.354004,8.319 -8.708984,8.319c-3.343994,0 -4.821045,-1.632004 -6.455017,-3.654007l-0.310974,0.154999l0,16.718002c0,5.365005 2.877991,8.087006 9.564941,9.408005l4.432007,-4.432007l0.933044,0.932999l-10.342041,10.110016c-9.719971,-1.477997 -14.073975,-7.231995 -14.073975,-14.386002l0,-11.897003c0,-1.313995 -0.077026,-2.098999 -0.621033,-2.799988c5.364014,-2.332001 12.984985,-6.997009 17.494019,-10.807007c0.856018,1.166992 2.565979,2.643997 4.510986,2.643997c0.986023,0 2.070007,-0.296997 2.877014,-0.778c0.445984,-0.265991 0.77301,-0.026001 0.700012,0.466995z"/>
    <path stroke="null" id="svg_24" d="m635.570007,56.335007l-8.242004,8.165009c-4.198975,-1.478012 -7.386963,-4.410004 -7.386963,-9.253006l0,-19.050995c0,-2.212997 -0.870056,-3.781998 -2.877014,-4.820007l-2.799988,2.798996l-0.855042,-0.854996l8.786987,-8.787003c5.673035,3.044006 7.231018,6.475998 7.231018,10.419006l0,18.817001c0,2.005997 0.85498,3.266998 2.877014,4.043991l2.333984,-2.410995l0.932007,0.932999z"/>
    <path stroke="null" id="svg_25" d="m617.375,56.645996l-7.932007,7.854004c-4.354004,-1.632996 -7.619995,-4.542007 -7.619995,-9.175995l0,-16.097c0,-4.89801 -0.700012,-6.764008 -4.742981,-8.475006l-3.889038,3.809006l0,19.595993c0,2.400009 1.090027,3.421005 3.267029,4.277008l-6.065002,6.064987c-4.89801,-1.944 -6.687988,-4.742996 -6.687988,-9.64299l0,-19.05101c0,-2.876999 -0.777039,-3.809998 -2.877014,-4.58699l-2.099976,2.098999l-0.933044,-0.854996l7.853027,-7.932007c5.054993,1.244003 7.310974,4.587997 7.466003,8.320007l8.396973,-8.320007c6.455017,1.477997 9.799011,4.897995 9.799011,11.585007l0,18.584c0,1.937988 1.01001,2.955002 2.721008,3.421997l2.333008,-2.410995l1.010986,0.935989z"/>
    <path stroke="null" id="svg_26" d="m548.635986,26.865005c-1.164978,4.817001 -4.197998,8.008011 -8.786987,8.008011c-2.697998,0 -4.588013,-1.243011 -5.908997,-2.643005l-0.233032,0.154999l0,20.061996c0,2.799011 0.389038,4.199005 4.433044,5.365005l2.409973,-2.488007l0.934021,0.934006l-8.320007,8.242004c-6.687988,-1.866013 -8.942017,-5.410004 -8.942017,-10.809006l0,-16.718002c0,-2.955002 -0.700012,-4.664993 -2.721985,-5.209l-2.488037,2.487l-0.932983,-0.932007l8.786987,-8.786987c3.809021,0.699997 6.298035,4.043991 6.454041,6.998993l7.22998,-6.998993c0.934021,1.399002 2.723022,2.876999 4.354004,2.876999c1.012024,0 2.099976,-0.311005 2.877991,-0.932999c0.434021,-0.348007 0.953003,-0.018021 0.854004,0.388992z"/>
    <path stroke="null" id="svg_27" d="m516.132019,51.591995c0,12.285004 -6.143005,17.884995 -14.617004,22.784012c-0.785034,0.453979 -1.562012,0.069 -0.700012,-0.778015c4.275024,-4.196991 5.83197,-7.542999 5.83197,-17.339996l0,-17.57399c0,-4.432999 -1.088989,-6.609009 -4.819946,-7.853012l-3.811035,3.731003l0,18.818008c0,3.498993 1.244019,4.353989 3.265991,4.975998l-6.065002,6.143997c-4.820984,-1.865997 -6.687988,-4.824005 -6.687988,-8.942001l0,-38.880005c0,-2.213989 -0.713989,-3.703995 -2.721985,-4.742996l-2.255005,2.255005l-0.932983,-0.932999l8.320007,-8.242996c5.597961,2.332993 6.997986,6.47699 6.997986,10.419998l0,17.417999l8.396973,-8.320007c6.222046,1.167007 9.796997,5.28801 9.796997,10.729996l0,16.330002l0.001038,0z"/>
    <path stroke="null" id="svg_28" d="m705.942017,37.906006l-15.628967,10.029999l0,1.244003c0,4.428009 2.799988,6.999008 9.641968,8.709l4.51001,-4.509003l0.932983,0.855011l-10.341003,10.264984c-8.86499,-2.488998 -14.22998,-5.593994 -14.22998,-14.153l0,-11.664001c0,-1.556992 -0.153992,-2.565994 -0.544006,-3.266998c4.820984,-2.332001 13.188965,-7.352997 17.419006,-10.807007c2.020996,3.524002 5.517944,9.642014 8.23999,13.297012zm-8.708008,4.197998c-1.789001,-2.643997 -4.965027,-8.10701 -6.531982,-11.118011l-0.389038,0.233002l0,15.240005l6.921021,-4.354996z"/>
    <path stroke="null" id="svg_29" d="m576.395996,54.080002c-4.906982,2.240005 -12.692993,6.703995 -18.27301,10.419998c-6.377014,-1.477997 -10.575012,-5.442993 -10.575012,-11.975998l0,-14.384995c0,-1.419006 -0.154968,-2.255005 -0.621948,-2.877014c5.131958,-2.253998 14.151978,-7.416992 18.429993,-10.418991c6.143005,1.399994 10.497009,5.598999 10.497009,11.662994l0,14.074997c0,1.789001 0.220947,2.806 0.542969,3.499008zm-10.031006,4.587997l0,-19.673996c0,-5.054001 -3.421021,-7.774002 -8.942017,-8.475006l-0.388977,0.156006l0,19.360992c0,5.988007 3.421997,7.932007 8.864014,8.865005l0.46698,-0.233002z"/>
    <path stroke="null" id="svg_30" d="m485.807007,52.291c-3.849976,7.837006 -11.403992,14.153 -22.937988,14.153c-16.259003,0 -29.860016,-9.406006 -29.860016,-29.238007c0,-15.128998 9.453003,-24.608994 21.229004,-28.691986c0.809998,-0.280014 1.274017,0.288986 0.545013,0.854996c-7.621002,5.910004 -11.742004,13.934998 -11.742004,22.860992c0,8.686005 2.225983,15.604004 6.687988,20.139008c1.925995,-1.556 2.721008,-3.014999 2.721008,-5.132004l0,-24.882004c0,-2.104996 -0.095001,-3.173996 -1.088013,-4.19899c6.279022,-3.020004 14.706024,-9.584 19.828003,-13.609009c2.645996,2.572006 4.13501,4.414001 10.341003,3.656006c0.885986,-0.109009 0.978027,-0.098999 0.700989,0.69899c-1.838013,5.285004 -5.110962,7.775009 -9.874969,7.775009c-1.726013,0 -3.268005,-0.535004 -4.822021,-1.477005l0,43.234009c6.636993,-0.225006 13.222015,-3.728012 17.495026,-6.843002c0.618958,-0.451004 1.050964,0.143997 0.776978,0.699997zm-19.673004,6.143997l0,-44.011993c-0.953003,-0.735001 -1.782013,-1.634003 -2.411011,-2.643997l-2.177002,1.710999l0,26.748993c0,5.828995 -3.47699,7.736008 -10.963989,12.985001c3.757996,3.333008 8.957001,5.154999 15.552002,5.210999z"/>
    <path stroke="null" id="svg_31" d="m709.52002,64.5"/>
   </g>
  </g>
 </g>
</svg>