<?xml version="1.0" encoding="utf-8"?>
<!DOCTYPE svg PUBLIC "-//W3C//DTD SVG 1.1//EN" "http://www.w3.org/Graphics/SVG/1.1/DTD/svg11.dtd">

<svg width="710" height="80" xmlns="http://www.w3.org/2000/svg" xmlns:svg="http://www.w3.org/2000/svg">
 <g>
  <g id="svg_1">
   <g id="svg_2">
    <path id="svg_3" d="m0.002998,65.5" fill="#ffffff"/>
    <path id="svg_4" d="m384.832001,27.942993c-0.700012,4.666 -4.354004,8.320007 -8.709015,8.320007c-3.343994,0 -4.820984,-1.633011 -6.453979,-3.654007l-0.312012,0.154999l0,16.718002c0,5.365005 2.878021,8.087006 9.565002,9.408005l4.433014,-4.432007l0.932983,0.932999l-10.342987,10.109009c-9.718994,-1.477997 -14.074005,-7.231003 -14.074005,-14.386002l0,-11.897003c0,-1.313995 -0.076996,-2.098999 -0.622009,-2.799988c5.365021,-2.332001 12.986023,-6.997009 17.497009,-10.807007c0.854004,1.166992 2.56601,2.643997 4.51001,2.643997c0.985992,0 2.067993,-0.296997 2.876007,-0.778c0.446991,-0.265991 0.773987,-0.026001 0.699982,0.466995z" fill="#ffffff"/>
    <polygon id="svg_5" points="320.6809997558594,14.723007202148438 315.0830078125,20.399993896484375 309.25,15.035003662109375 314.927001953125,9.125 " fill="#ffffff"/>
    <path id="svg_6" d="m328.458008,57.335007l-8.242004,8.164993c-4.199982,-1.477997 -7.388,-4.410995 -7.388,-9.252991l0,-19.05101c0,-2.212997 -0.869995,-3.781998 -2.876984,-4.819992l-2.799011,2.798996l-0.855011,-0.854996l8.787018,-8.787003c5.673004,3.044006 7.230988,6.475998 7.230988,10.419006l0,18.817001c0,2.005997 0.856018,3.266998 2.877014,4.043991l2.332977,-2.410995l0.933014,0.932999z" fill="#ffffff"/>
    <path id="svg_7" d="m307.462006,27.942993c-0.700012,4.666 -4.354004,8.320007 -8.708984,8.320007c-3.343018,0 -4.821014,-1.633011 -6.45401,-3.654007l-0.311005,0.154999l0,16.718002c0,5.365005 2.877014,8.087006 9.563995,9.408005l4.433014,-4.432007l0.932983,0.932999l-10.34201,10.109009c-9.720001,-1.477997 -14.074005,-7.231003 -14.074005,-14.386002l0,-11.897003c0,-1.313995 -0.078003,-2.098999 -0.622009,-2.799988c5.365021,-2.332001 12.985016,-6.997009 17.496002,-10.807007c0.855011,1.166992 2.565002,2.643997 4.51001,2.643997c0.985992,0 2.070007,-0.296997 2.877014,-0.778c0.445007,-0.265991 0.77301,-0.026001 0.699005,0.466995z" fill="#ffffff"/>
    <path id="svg_8" d="m281.179993,57.645996l-7.932007,7.854004c-4.354004,-1.633011 -7.619995,-4.542007 -7.619995,-9.17601l0,-16.097c0,-4.897995 -0.700012,-6.763992 -4.743988,-8.474991l-3.888,3.80899l0,19.596008c0,2.399994 1.088989,3.421005 3.266998,4.276993l-6.06601,6.065002c-4.89801,-1.944 -6.687012,-4.742996 -6.687012,-9.64299l0,-19.05101c0,-2.876999 -0.777985,-3.809998 -2.877991,-4.58699l-2.100006,2.098999l-0.932983,-0.855011l7.854004,-7.931992c5.054993,1.244003 7.309998,4.587997 7.464996,8.319992l8.39798,-8.319992c6.45401,1.477997 9.798004,4.897995 9.798004,11.584991l0,18.584c0,1.938004 1.011017,2.955002 2.721008,3.422012l2.333008,-2.411011l1.011993,0.936005z" fill="#ffffff"/>
    <path id="svg_9" d="m215.240005,27.865005c-1.167007,4.817993 -4.199005,8.007996 -8.787003,8.007996c-2.697998,0 -4.587997,-1.242996 -5.910004,-2.64299l-0.232986,0.154999l0,20.061996c0,2.798996 0.388992,4.199005 4.432999,5.365005l2.410995,-2.488007l0.932999,0.934006l-8.319992,8.241989c-6.688004,-1.865997 -8.942001,-5.409988 -8.942001,-10.80899l0,-16.719009c0,-2.954987 -0.700012,-4.664993 -2.722,-5.209l-2.488007,2.488007l-0.932999,-0.932999l8.787994,-8.787003c3.809998,0.699997 6.298004,4.044006 6.45401,6.998993l7.230988,-6.998993c0.933014,1.399002 2.722,2.876999 4.355011,2.876999c1.011002,0 2.098999,-0.311005 2.876999,-0.932999c0.432999,-0.347 0.950989,-0.017014 0.852997,0.389999z" fill="#ffffff"/>
    <path id="svg_10" d="m167.339996,6.869995c-1.990005,4.175003 -5.391998,7.231003 -11.352005,7.231003c-3.265991,0 -9.241989,-2.255005 -11.585999,-2.255005c-3.731995,0 -5.365997,1.147995 -5.365997,3.344009c0,0.75499 0.544006,1.357986 1.322006,1.556c0.692001,0.174988 1.243988,0.591995 1.243988,1.087997c0,0.621994 -0.388992,1.011002 -1.088989,1.011002c-1.710999,0 -3.344009,-1.943008 -3.344009,-5.28801c0,-5.599991 4.828003,-9.64299 10.576004,-9.64299c4.460007,0 10.427002,3.966995 13.451004,3.966995c2.332993,0 3.966003,-0.623001 5.677002,-1.867004c0.580002,-0.421997 0.806,0.146011 0.466995,0.856003z" fill="#ffffff"/>
    <path id="svg_11" d="m125.738998,57.645996l-7.931,7.854004c-4.354996,-1.633011 -7.621002,-4.542007 -7.621002,-9.17601l0,-16.097c0,-4.897995 -0.699997,-6.763992 -4.744003,-8.474991l-3.888,3.80899l0,19.596008c0,2.399994 1.089005,3.421005 3.266998,4.276993l-6.064987,6.065002c-4.899002,-1.944 -6.687012,-4.742996 -6.687012,-9.64299l0,-19.05101c0,-2.876999 -0.778,-3.809998 -2.876991,-4.58699l-2.100006,2.098999l-0.932999,-0.855011l7.853004,-7.931992c5.054001,1.244003 7.30899,4.587997 7.464996,8.319992l8.397995,-8.319992c6.455002,1.477997 9.798004,4.897995 9.798004,11.584991l0,18.584c0,1.938004 1.011002,2.955002 2.722,3.422012l2.333008,-2.411011l1.009995,0.936005z" fill="#ffffff"/>
    <path id="svg_12" d="m415.080994,55.080002c-4.907013,2.240005 -12.694,6.703995 -18.273987,10.419998c-6.375,-1.477997 -10.574005,-5.442993 -10.574005,-11.975998l0,-14.384995c0,-1.419006 -0.154999,-2.255005 -0.622009,-2.876007c5.131989,-2.255005 14.151001,-7.417999 18.429016,-10.419998c6.142975,1.399994 10.495972,5.598999 10.495972,11.662994l0,14.075012c-0.000977,1.788986 0.222015,2.805984 0.545013,3.498993zm-10.029999,4.587997l0,-19.673996c0,-5.054001 -3.423004,-7.774002 -8.942993,-8.475006l-0.389008,0.156006l0,19.360992c0,5.988007 3.42099,7.932007 8.86499,8.865005l0.46701,-0.233002z" fill="#ffffff"/>
    <path id="svg_13" d="m355.828003,27.554001c0,0 -3.916992,6.181 -9.175995,13.373993c4.665985,1.166 7.854004,3.583008 7.854004,8.009003l0,5.677002c0,0.561005 0.240997,1.947006 0.699982,2.643997c-3.811005,1.428009 -10.845978,5.065002 -15.317993,8.242004c-1.554993,-1.477997 -2.876007,-2.100006 -5.053986,-2.100006c-3.811005,0 -6.999023,2.098999 -6.999023,5.209991c0,0.582001 0.483002,1.087006 1.011017,1.322021c0.572998,0.255005 1.010986,0.694 1.010986,1.165985c0,0.777008 -0.699982,1.244019 -1.243988,1.244019c-1.632996,0 -2.177002,-1.788025 -2.177002,-3.888c0,-3.499008 2.971008,-6.499008 6.065002,-10.653015c0,0 4.609009,-6.270996 5.677002,-7.621002c-6.143005,-2.098999 -9.487,-4.373993 -9.487,-8.940994l0,-3.188995c0,-1.356003 -0.078003,-2.488007 -0.622009,-3.499008c4.042999,-1.320999 11.819,-6.218994 15.707001,-8.940994c1.105988,1.591003 3.575989,2.876999 5.286987,2.876999c2.411011,0 4.356018,-0.701004 6.221008,-1.710007c0.563995,-0.306992 1.080994,-0.005997 0.544006,0.777008zm-4.899017,4.899002l-0.156006,-0.156006c-1.867004,1.522003 -3.996979,2.721008 -6.141998,2.721008c-3.251984,0 -4.665985,-1.477005 -6.221008,-3.499008l-0.311981,0.078003l0,6.764008c0,2.768997 1.325989,3.575989 5.132996,4.820999c2.906006,-3.805008 7.697998,-10.729004 7.697998,-10.729004zm-5.90799,26.826004l0,-6.766006c0,-3.187988 -0.855988,-3.964996 -3.343994,-4.742996c-2.644012,3.576004 -7.932007,10.807999 -7.932007,10.807999l0.156006,0.078003c1.944,-1.322006 4.042999,-1.710999 5.520996,-1.710999c2.098999,0 4.199005,1.011002 5.36499,2.488007l0.234009,-0.154007z" fill="#ffffff"/>
    <path id="svg_14" d="m243.699005,57.957993l-7.541992,7.541992c-3.032013,-0.932999 -6.687012,-3.265991 -7.386993,-7.309998l-0.156006,0l-9.718994,7.309998c-4.432022,-1.320999 -7.310013,-5.598999 -7.310013,-10.030991c0,-7.387009 7.698013,-11.431 16.951004,-12.831009l0,-2.565994c0,-4.354004 -1.632996,-7.386002 -9.485992,-7.541992l-2.56601,2.487l-0.934006,-0.855011l8.630997,-8.630997c7.542999,0 13.841003,4.897995 13.841003,12.363007l0,17.417999c0,2.696991 1.244995,3.498993 2.488007,3.965988l2.255005,-2.177994l0.93399,0.858002zm-15.162018,-1.011993l0,-13.063004c-4.821014,1.477997 -7.854004,4.195007 -7.854004,8.863998c0,3.966003 1.477997,5.754013 4.122009,6.844009l3.731995,-2.645004z" fill="#ffffff"/>
    <path id="svg_15" d="m193.856003,9.669006c-1.087997,3.964005 -4.408997,8.242996 -9.798004,8.242996c-1.653,0 -3.082993,-0.319992 -4.587997,-1.011993l0,11.119995l6.221008,0l-3.577011,7.697006l-2.644989,0l0,29.78299c0,0.343002 -0.388,0.544006 -0.699005,0.544006c-0.311996,0 -0.699997,-0.169006 -0.699997,-0.544006l0,-29.781998l-4.665009,0l0,10.653c0,11.022003 -4.871994,13.544998 -16.873993,21.384003c-3.511002,-2.939011 -6.324997,-5.28801 -12.285004,-5.28801c-8.882996,0 -11.975998,3.016006 -11.975998,6.999008c0,2.658997 1.205002,3.29599 2.177002,3.731995c0.543991,0.243988 1.088989,0.612 1.088989,1.243988c0,0.699005 -0.466995,1.088013 -1.165985,1.088013c-2.022003,0 -3.733002,-2.395996 -3.733002,-7.619995c0,-7.701004 6.194992,-14.229996 17.029999,-14.229996c7.438995,0 11.626999,2.676987 15.395996,6.608994l0,-42.688995l-3.031998,1.399994l0,19.283997c0,6.367996 -1.931,10.938004 -12.595993,14.307999c-0.489014,0.154007 -0.934006,-0.233002 -0.389008,-0.621994c3.057007,-2.182999 3.966003,-3.307007 3.966003,-8.242996l0,-8.009003l-1.712006,0c-3.856003,0 -4.307007,1.369995 -4.587997,3.110992c-0.031006,0.192001 -0.313004,0.376999 -0.699005,0c-0.724991,-0.707993 -1.556,-2.186996 -1.556,-4.19899c0,-4.753006 2.772003,-6.609009 7.309998,-6.609009l1.244003,0l0,-1.399002c0,-2.332993 -0.263,-3.811996 -0.854996,-4.97699c10.205994,-3.674011 21.916992,-8.981003 31.959,-16.330002c1.442993,1.639999 3.561996,4.121002 8.164993,4.121002c1.011002,0 2.021011,-0.154999 2.799011,-0.544006c0.650986,-0.326996 0.991989,-0.005997 0.776993,0.777008zm-15.785004,18.35199l0,-11.664001c-1.975998,-1.130005 -3.419006,-2.735001 -4.199005,-4.509995l-0.465988,0.311996l0,15.863007l4.664993,0l0,-0.001007z" fill="#ffffff"/>
    <path id="svg_16" d="m88.260002,57.957993l-7.542999,7.541992c-3.032997,-0.932999 -6.687004,-3.265991 -7.387001,-7.309998l-0.154999,0l-9.720001,7.309998c-4.431999,-1.320999 -7.308998,-5.598999 -7.308998,-10.030991c0,-7.387009 7.697998,-11.431 16.950996,-12.831009l0,-2.565994c0,-4.354004 -1.632996,-7.386002 -9.486,-7.541992l-2.565994,2.487l-0.933006,-0.855011l8.631004,-8.630997c7.542999,0 13.841995,4.897995 13.841995,12.363007l0,17.417999c0,2.696991 1.244003,3.498993 2.487999,3.965988l2.255005,-2.177994l0.931999,0.858002zm-15.164001,-1.011993l0,-13.063004c-4.820999,1.477997 -7.853996,4.195007 -7.853996,8.863998c0,3.966003 1.477997,5.754013 4.120995,6.844009l3.733002,-2.645004z" fill="#ffffff"/>
    <path id="svg_17" d="m56.921997,39.761993c0,6.873001 -5.32,12.376999 -10.808998,18.507004c-2.786003,3.112 -5.686005,6.291992 -8.397003,9.331009c-3.741997,-3.738007 -9.224998,-6.220016 -15.473999,-6.220016c-10.023998,0 -15.318001,3.428009 -15.318001,7.931992c0,2.177002 0.699001,3.226013 1.555,3.577026c0.949001,0.388977 1.709999,0.75 1.709999,1.631989c0,0.743011 -0.621998,1.010986 -1.243999,1.010986c-2.021,0 -3.654999,-3.023987 -3.654999,-7.30899c0,-7.968002 6.181,-16.095993 20.062,-16.095993c8.278999,0 13.710999,2.672989 18.195999,6.608994c2.178001,-2.542999 6.609001,-8.054993 6.609001,-13.218994c0,-8.050003 -5.374001,-10.938004 -13.219002,-12.44101l-3.654999,-0.699997l-1.167,1.632996l3.810997,0.777008c7.376999,1.505997 11.975006,4.108994 11.975006,10.496994c0,4.042999 -1.633003,6.921005 -3.266006,8.865005c0.055,-0.56601 0.077003,-1.098999 0.077003,-1.632996c0,-4.628006 -3.165001,-8.208008 -13.296997,-10.341003l-4.432007,-0.932999c-4.198997,5.442001 -6.430996,7.231003 -9.408997,7.231003c-1.720001,0 -2.489002,-0.622009 -2.489002,-1.400009c0,-0.854996 0.700001,-1.321991 1.633003,-1.321991c0.855,0 1.320999,1.088989 2.176998,1.088989c1.556,0 3.499001,-1.944 6.688,-5.909988l-3.111,-0.700012c-7.727001,-1.737991 -11.43,-4.742996 -11.43,-9.562988c0,-3.031006 1.243,-4.706009 2.333,-5.28801c1.716999,3.943008 5.713001,5.87001 13.530003,7.464005l3.809998,0.778l1.166,-1.632996l-3.732002,-0.777008c-11.077,-2.30899 -14.384998,-5.610001 -14.384998,-12.442001c0,-7.699997 6.532001,-14.151993 17.106998,-14.151993c6.692001,0 11.757004,2.013 16.407005,5.209l2.099998,-2.643997c0.214996,-0.271011 0.471001,-0.311005 0.699997,-0.311005c0.312004,0 0.599998,0.171005 0.622002,0.466003c0.009003,0.119995 0.028,0.251999 -0.077003,0.388992c-3.927994,5.070007 -8.980995,11.770996 -11.585999,16.097c11.120003,1.944016 17.884003,5.751007 17.884003,15.940002zm-15.005997,-22.705994c-3.341003,-3.923004 -9.378998,-9.332001 -16.874001,-9.332001c-4.48,0 -7.153999,2.147995 -7.153999,6.143997c0,3.13501 3.030998,6.190002 11.196999,7.854004l8.398003,1.710999c1.307999,-1.817001 4.432999,-6.376999 4.432999,-6.376999z" fill="#ffffff"/>
    <path id="svg_18" d="m419.669006,65.5" fill="#ffffff"/>
   </g>
   <g id="svg_19">
    <path id="svg_20" d="m417.867004,65.5" fill="#ffffff"/>
    <path id="svg_21" d="m677.971985,57.179993l-8.320984,8.319992c-4.276001,-1.477997 -7.465027,-4.25499 -7.465027,-9.252991l0,-38.569c0,-2.214005 -0.869019,-3.781998 -2.877014,-4.820007l-2.79895,2.722l-0.855042,-0.855988l8.786987,-8.709c5.987,2.332993 7.230042,6.47699 7.230042,10.419998l0,38.334c0,2.005997 0.778015,3.266998 2.799988,4.043991l2.565979,-2.487991l0.934021,0.854996z" fill="#ffffff"/>
    <polygon id="svg_22" points="625.8729858398438,14.723007202148438 620.2730102539062,20.399993896484375 614.4409790039062,15.03399658203125 620.1190185546875,9.125 " fill="#ffffff"/>
    <path id="svg_23" d="m659.387024,27.942993c-0.700012,4.666 -4.354004,8.319 -8.708984,8.319c-3.343994,0 -4.821045,-1.632004 -6.455017,-3.654007l-0.310974,0.155014l0,16.717987c0,5.365005 2.877991,8.087006 9.565002,9.408005l4.431946,-4.431992l0.933044,0.932999l-10.342041,10.110001c-9.719971,-1.477997 -14.073975,-7.231995 -14.073975,-14.386002l0,-11.897003c0,-1.313995 -0.077026,-2.098999 -0.621033,-2.799988c5.364014,-2.332001 12.984985,-6.997009 17.494019,-10.807007c0.856018,1.166992 2.565979,2.643997 4.510986,2.643997c0.986023,0 2.070007,-0.296997 2.877014,-0.778c0.445984,-0.265991 0.77301,-0.026001 0.700012,0.466995z" fill="#ffffff"/>
    <path id="svg_24" d="m633.570007,57.335007l-8.242004,8.164993c-4.198975,-1.477997 -7.387024,-4.409988 -7.387024,-9.252991l0,-19.05101c0,-2.212997 -0.869995,-3.781998 -2.876953,-4.819992l-2.799988,2.798996l-0.855042,-0.854996l8.786987,-8.787003c5.673035,3.044006 7.231018,6.475998 7.231018,10.419006l0,18.817001c0,2.005997 0.85498,3.266998 2.877014,4.043991l2.333984,-2.410995l0.932007,0.932999z" fill="#ffffff"/>
    <path id="svg_25" d="m615.375,57.645996l-7.932007,7.854004c-4.354004,-1.633011 -7.619995,-4.542007 -7.619995,-9.17601l0,-16.097c0,-4.897995 -0.700012,-6.763992 -4.742981,-8.474991l-3.889038,3.80899l0,19.596008c0,2.399994 1.090027,3.421005 3.267029,4.276993l-6.065002,6.065002c-4.89801,-1.944 -6.687988,-4.742996 -6.687988,-9.64299l0,-19.05101c0,-2.876999 -0.777039,-3.809998 -2.877014,-4.58699l-2.099976,2.098999l-0.933044,-0.855011l7.853027,-7.931992c5.054993,1.244003 7.310974,4.587997 7.466003,8.319992l8.396973,-8.319992c6.455017,1.477997 9.799011,4.897995 9.799011,11.584991l0,18.584c0,1.938004 1.01001,2.955002 2.721008,3.422012l2.333008,-2.411011l1.010986,0.936005z" fill="#ffffff"/>
    <path id="svg_26" d="m546.635986,27.865005c-1.164978,4.817001 -4.197998,8.007996 -8.786987,8.007996c-2.697998,0 -4.588013,-1.242996 -5.908997,-2.64299l-0.233032,0.154999l0,20.061996c0,2.798996 0.389038,4.199005 4.433044,5.365005l2.409973,-2.488007l0.934021,0.934006l-8.320007,8.241989c-6.687988,-1.865997 -8.942017,-5.409988 -8.942017,-10.80899l0,-16.718002c0,-2.955002 -0.700012,-4.665009 -2.721985,-5.209l-2.488037,2.487l-0.932983,-0.932007l8.786987,-8.787003c3.809021,0.700012 6.298035,4.044006 6.454041,6.999008l7.22998,-6.999008c0.934021,1.399002 2.723022,2.877014 4.354004,2.877014c1.012024,0 2.099976,-0.311005 2.877991,-0.933014c0.434021,-0.347992 0.953003,-0.018005 0.854004,0.389008z" fill="#ffffff"/>
    <path id="svg_27" d="m514.132019,52.591995c0,12.285004 -6.143005,17.884995 -14.617004,22.784012c-0.784973,0.453979 -1.562012,0.069 -0.700012,-0.778015c4.275024,-4.196991 5.832031,-7.542999 5.832031,-17.339996l0,-17.574005c0,-4.432999 -1.088989,-6.608994 -4.820007,-7.852997l-3.811035,3.731003l0,18.817993c0,3.499008 1.244019,4.354004 3.266052,4.976013l-6.065002,6.143997c-4.821045,-1.865997 -6.688049,-4.824005 -6.688049,-8.942001l0,-38.880005c0,-2.214005 -0.713989,-3.703995 -2.721985,-4.742996l-2.255005,2.255005l-0.932983,-0.933014l8.320007,-8.242996c5.598022,2.333008 6.997986,6.477005 6.997986,10.419998l0,17.417999l8.397034,-8.319992c6.221985,1.166992 9.796997,5.287994 9.796997,10.729996l0,16.330002l0.000977,0z" fill="#ffffff"/>
    <path id="svg_28" d="m703.942017,38.906006l-15.629028,10.029999l0,1.244003c0,4.427994 2.800049,6.998993 9.642029,8.709l4.51001,-4.509003l0.932983,0.854996l-10.341003,10.264999c-8.86499,-2.488998 -14.22998,-5.593994 -14.22998,-14.153l0,-11.664001c0,-1.556992 -0.153992,-2.565994 -0.544006,-3.266998c4.820984,-2.332001 13.188965,-7.352997 17.419006,-10.807007c2.020996,3.524002 5.517944,9.642014 8.23999,13.297012zm-8.708008,4.197998c-1.789001,-2.643997 -4.965027,-8.106995 -6.531982,-11.117996l-0.389038,0.233002l0,15.23999l6.921021,-4.354996z" fill="#ffffff"/>
    <path id="svg_29" d="m574.395996,55.080002c-4.906982,2.240005 -12.692993,6.703995 -18.27301,10.419998c-6.377014,-1.477997 -10.575012,-5.442993 -10.575012,-11.975998l0,-14.384995c0,-1.419006 -0.154968,-2.255005 -0.621948,-2.876999c5.131958,-2.254013 14.151978,-7.417007 18.429993,-10.419006c6.143005,1.399994 10.496948,5.598999 10.496948,11.662994l0,14.075012c0.000061,1.788986 0.221008,2.805984 0.54303,3.498993zm-10.031006,4.587997l0,-19.673996c0,-5.054001 -3.421021,-7.774002 -8.942017,-8.475006l-0.388977,0.156006l0,19.360992c0,5.988007 3.421997,7.932007 8.864014,8.865005l0.46698,-0.233002z" fill="#ffffff"/>
    <path id="svg_30" d="m483.807007,53.291c-3.849976,7.837006 -11.403992,14.153 -22.937988,14.153c-16.259003,0 -29.860016,-9.406006 -29.860016,-29.238007c0,-15.128998 9.453003,-24.608994 21.229004,-28.691986c0.809998,-0.280014 1.273987,0.288986 0.545013,0.854996c-7.621002,5.910004 -11.742004,13.934998 -11.742004,22.860992c0,8.686005 2.225983,15.604004 6.687988,20.139008c1.925995,-1.556 2.721008,-3.014999 2.721008,-5.132004l0,-24.882004c0,-2.104996 -0.095001,-3.173996 -1.088013,-4.19899c6.279022,-3.020004 14.705994,-9.584 19.828003,-13.609009c2.645996,2.572006 4.13501,4.414001 10.341003,3.656006c0.885986,-0.109009 0.978027,-0.098999 0.700989,0.69899c-1.838013,5.285004 -5.110962,7.775009 -9.875,7.775009c-1.725983,0 -3.267975,-0.535004 -4.821991,-1.477005l0,43.234009c6.636993,-0.225006 13.222015,-3.728012 17.495026,-6.843002c0.618958,-0.451004 1.050964,0.143997 0.776978,0.699997zm-19.673004,6.143997l0,-44.011993c-0.953003,-0.735001 -1.782013,-1.634003 -2.411011,-2.644012l-2.177002,1.710999l0,26.749008c0,5.828995 -3.47699,7.735992 -10.963989,12.985001c3.757996,3.333008 8.957001,5.154999 15.552002,5.210999z" fill="#ffffff"/>
    <path id="svg_31" d="m707.52002,65.5" fill="#ffffff"/>
   </g>
  </g>
 </g>
</svg>